<svg width="2738" height="908" viewBox="0 0 2738 908" fill="none" xmlns="http://www.w3.org/2000/svg">
<path d="M499.361 105.028C510.913 96.7025 522.39 88.4068 522.39 88.4068C522.39 88.4068 529.542 74.8469 533.377 71.0749C537.212 67.3029 550.139 75.9473 551.283 78.8991C552.427 81.851 535.688 98.4618 535.688 98.4618L530.226 99.6144C530.226 99.6144 516.781 111.519 504.586 122.322L499.361 105.028Z" fill="#FFE3DF"/>
<path d="M399.932 146.831C399.932 146.831 432.043 140.73 446.317 134.099C460.592 127.467 515.867 91.4523 515.867 91.4523L521.945 109.614C521.945 109.614 471.968 154.139 459.191 159.947C446.415 165.754 401.472 178.678 401.472 178.678L399.932 146.831Z" fill="url(#paint0_linear)"/>
<path opacity="0.1" d="M401.487 178.675C401.487 178.675 418.14 173.878 434.052 168.809C444.258 165.547 454.174 162.184 459.182 159.923C471.968 154.139 521.937 109.615 521.937 109.615L515.865 91.4379C515.865 91.4379 460.587 127.468 446.329 134.097C432.071 140.725 399.937 146.818 399.937 146.818L400.877 165.935L401.487 178.675Z" fill="white"/>
<path opacity="0.2" d="M401.484 178.675C401.484 178.675 418.138 173.878 434.05 168.809C426.151 165.869 413.109 162.48 400.875 165.936L401.484 178.675Z" fill="black"/>
<path d="M157.817 179.491L169.155 171.505L182.14 185.982L194.028 199.271L182.111 210.942L169.242 194.291L157.817 179.491Z" fill="#FFE3DF"/>
<path d="M172.094 170.52C172.947 171.79 156.898 181.629 156.898 181.629C156.898 181.629 140.681 178.677 129.981 182.981C119.28 187.285 120.529 178.167 130.789 170.941L156.163 153.065C163.442 147.932 163.272 157.348 172.094 170.52Z" fill="#585979"/>
<path d="M146.049 183.392C145.543 183.694 145.157 184.161 144.953 184.715C144.875 185.073 144.908 185.446 145.048 185.785C145.188 186.124 145.428 186.413 145.736 186.612C145.948 186.792 146.195 186.926 146.462 187.006C146.729 187.085 147.01 187.108 147.286 187.073C148.69 186.75 149.974 186.04 150.995 185.024C150.217 186.571 149.694 188.152 150.216 188.991C150.556 189.537 151.203 189.731 152.137 189.571C152.551 189.508 152.947 189.356 153.296 189.126C153.646 188.895 153.941 188.592 154.162 188.236C155.628 185.912 154.411 181.45 154.347 181.219C154.33 181.153 154.298 181.091 154.255 181.039C154.222 180.997 154.183 180.962 154.138 180.934C154.091 180.906 154.041 180.885 153.988 180.872V180.872C153.924 180.857 153.858 180.854 153.793 180.866C151.085 181.252 148.464 182.107 146.049 183.392V183.392ZM149.244 185.148C148.649 185.623 147.946 185.946 147.197 186.087C147.052 186.109 146.905 186.1 146.764 186.061C146.623 186.022 146.491 185.953 146.379 185.86C145.799 185.367 145.881 185.075 145.907 184.976C146.217 183.873 149.623 182.737 152.561 182.1C151.561 183.225 150.45 184.247 149.244 185.148ZM152.793 188.275C152.547 188.446 152.265 188.558 151.969 188.603C151.689 188.651 151.198 188.701 151.058 188.479C150.612 187.759 151.965 185.019 153.631 182.552C154.089 184.258 153.981 186.067 153.323 187.707C153.185 187.927 153.004 188.117 152.791 188.266L152.793 188.275Z" fill="url(#paint1_linear)"/>
<path opacity="0.2" d="M168.995 193.951L181.919 185.669L193.919 199.125L182.055 210.875L168.995 193.951Z" fill="black"/>
<path d="M171.086 200.31C171.086 200.31 181.51 213.505 195.172 229.408C206.918 243.39 219.417 256.722 232.614 269.344C232.876 269.573 233.114 269.806 233.348 270.015C237.746 274.209 242.547 277.959 247.682 281.21C259.305 287.968 276.387 286.302 292.802 280.974C309.752 275.432 325.966 265.964 334.672 257.788C341.86 251.204 348.136 243.687 353.332 235.438L335.531 204.286C335.531 204.286 306.504 217.604 259.781 246.329C259.403 246.591 258.997 246.834 258.591 247.076L230.379 223.269L190.526 189.652L171.086 200.31Z" fill="url(#paint2_linear)"/>
<path d="M192.998 190.341L170.75 203.149L167.917 199.078L189.035 187.318L192.998 190.341Z" fill="url(#paint3_linear)"/>
<path opacity="0.2" d="M233.348 270.015C237.746 274.209 242.547 277.959 247.682 281.209C259.305 287.967 276.387 286.302 292.802 280.974C299.952 272.881 305.898 263.8 310.458 254.012L330.479 247.439L309.415 245.903L233.348 270.015Z" fill="black"/>
<path opacity="0.2" d="M192.998 190.341L170.75 203.149L167.917 199.078L189.035 187.318L192.998 190.341Z" fill="black"/>
<path opacity="0.2" d="M195.172 229.408C206.918 243.39 219.417 256.722 232.613 269.344L262.284 249.682L259.781 246.329C259.403 246.591 258.996 246.834 258.59 247.076L230.379 223.269C221.627 224.547 208.664 226.635 195.172 229.408Z" fill="black"/>
<path d="M87.194 251.88L92.0348 238.891L110.93 243.495L128.256 247.746L125.021 264.11L104.992 257.648L87.194 251.88Z" fill="#FFE3DF"/>
<path d="M93.911 236.406C95.3332 236.974 87.6537 254.162 87.6537 254.162C87.6537 254.162 72.6051 260.889 66.2115 270.491C59.8179 280.093 55.6965 271.86 60.0739 260.1C64.4514 248.339 67.7938 239.367 70.9024 231.01C74.0109 222.654 79.1778 230.531 93.911 236.406Z" fill="#585979"/>
<path d="M79.6905 261.748C79.4452 262.284 79.3902 262.887 79.5345 263.459C79.6864 263.903 80.1107 264.459 81.2518 264.582C81.5295 264.609 81.8098 264.578 82.0748 264.491C82.3398 264.403 82.5836 264.261 82.7907 264.074C83.7662 263.01 84.4245 261.695 84.691 260.276C84.9231 261.991 85.3842 263.59 86.2874 263.981C86.6294 264.094 86.9982 264.096 87.3414 263.987C87.6847 263.878 87.985 263.664 88.1997 263.375C88.5056 263.088 88.7454 262.737 88.9023 262.348C89.0592 261.959 89.1296 261.54 89.1085 261.12C89.0056 258.376 85.4797 255.381 85.2974 255.228C85.2458 255.183 85.1851 255.15 85.1196 255.131V255.131C85.069 255.115 85.0156 255.109 84.9625 255.113C84.9083 255.113 84.8545 255.123 84.8031 255.14C84.7421 255.164 84.6865 255.201 84.6399 255.247C82.6241 257.109 80.9492 259.309 79.6905 261.748V261.748ZM83.318 261.385C83.093 262.115 82.6935 262.779 82.1541 263.32C82.0463 263.419 81.919 263.495 81.7803 263.542C81.6416 263.589 81.4945 263.607 81.3485 263.595C80.5897 263.514 80.4965 263.227 80.4633 263.133C80.089 262.049 82.2614 259.186 84.3244 256.999C84.1382 258.494 83.8014 259.965 83.3192 261.392L83.318 261.385ZM88.0089 261.949C87.9012 262.229 87.7314 262.482 87.5122 262.686C87.298 262.889 86.9313 263.204 86.6899 263.098C85.9145 262.757 85.4836 259.732 85.4632 256.755C86.8047 257.905 87.7378 259.458 88.1229 261.182C88.1367 261.445 88.0984 261.709 88.0101 261.957L88.0089 261.949Z" fill="url(#paint4_linear)"/>
<path opacity="0.2" d="M104.587 257.49L110.568 243.353L128.07 247.661L124.924 264.057L104.587 257.49Z" fill="black"/>
<path d="M334.366 197.453C334.366 197.453 288.542 188.628 208.519 250.666L119.922 241.767L109.901 261.557C109.901 261.557 191.6 286.986 218.83 284.997C246.06 283.009 308.544 248.671 308.544 248.671L359.516 225.977L334.366 197.453Z" fill="url(#paint5_linear)"/>
<path d="M123.638 240.047L118.566 240.903L107.363 262.263L112.929 264.339L123.638 240.047Z" fill="url(#paint6_linear)"/>
<path opacity="0.2" d="M123.638 240.047L118.566 240.903L107.363 262.263L112.929 264.339L123.638 240.047Z" fill="black"/>
<path d="M292.308 199.531C292.308 199.531 307.255 239.429 339.781 240.43C344.928 240.656 350.072 239.907 354.942 238.225C359.566 236.51 363.806 233.901 367.422 230.548C371.038 227.194 373.958 223.161 376.015 218.679C377.306 216.127 378.311 213.44 379.01 210.667L329.458 195.238L325.374 193.952C319.263 193.731 313.145 193.97 307.07 194.668C301.16 195.417 295.351 196.854 292.308 199.531Z" fill="url(#paint7_linear)"/>
<path opacity="0.2" d="M292.308 199.531C292.308 199.531 307.255 239.429 339.781 240.43C344.928 240.656 350.072 239.907 354.942 238.225C359.566 236.51 363.806 233.901 367.422 230.548C371.038 227.194 373.958 223.161 376.015 218.679C377.306 216.127 378.311 213.44 379.01 210.667L329.458 195.238L325.374 193.952C319.263 193.731 313.145 193.97 307.07 194.668C301.16 195.417 295.351 196.854 292.308 199.531Z" fill="white"/>
<path opacity="0.2" d="M324.787 221.457C335.485 229.634 345.14 235.345 354.942 238.229C359.566 236.515 363.807 233.906 367.423 230.553C371.038 227.199 373.958 223.166 376.015 218.684C360.934 210.024 345.389 202.198 329.451 195.241L325.366 193.956C319.256 193.734 313.137 193.974 307.063 194.672C305.958 200.929 309.891 210.08 324.787 221.457Z" fill="black"/>
<path d="M406.823 145.731C377.827 142.692 348.525 146.64 321.367 157.246C321.367 157.246 310.243 185.538 308.855 206.614C308.855 206.614 339.198 238.238 372.187 231.574C405.177 224.91 406.823 145.731 406.823 145.731Z" fill="url(#paint8_linear)"/>
<path opacity="0.2" d="M308.846 206.602C308.846 206.602 339.196 238.221 372.179 231.563C405.161 224.905 406.826 145.73 406.826 145.73C377.827 142.693 348.522 146.64 321.36 157.244C316.17 170.732 312.269 184.682 309.709 198.905C309.307 201.532 308.998 204.117 308.846 206.602Z" fill="white"/>
<path opacity="0.2" d="M309.709 198.905C322.882 189.379 325.571 164.979 321.36 157.244C316.17 170.732 312.269 184.681 309.709 198.905V198.905Z" fill="black"/>
<path d="M404.631 108.84C404.631 108.84 399.648 63.9495 362.47 81.2689C315.801 103.011 354.752 156.844 377.518 144.987C400.283 133.13 404.631 108.84 404.631 108.84Z" fill="#585979"/>
<path d="M347.525 154.969C347.525 154.969 360.544 178.139 375.6 173.957C379.587 172.835 383.206 170.678 386.09 167.704C388.974 164.731 391.02 161.047 392.019 157.027C392.241 156.248 392.414 155.454 392.535 154.653C392.535 154.653 384.339 153.646 388.138 145.975L366.436 134.312C366.804 136.369 367.05 138.445 367.175 140.53C367.345 144.244 367.059 148.471 364.968 149.884C361.011 152.567 347.525 154.969 347.525 154.969Z" fill="#FFE3DF"/>
<path opacity="0.2" d="M367.174 140.527C370.207 149.02 377.302 161.61 392.019 157.025C392.241 156.245 392.413 155.452 392.535 154.65C392.535 154.65 384.339 153.643 388.137 145.973L366.436 134.31C366.803 136.366 367.05 138.442 367.174 140.527V140.527Z" fill="black"/>
<path d="M375.128 90.3805C392.091 86.1647 399.815 93.886 405.398 111.06C412.382 132.517 411.396 149.242 389.026 149.842C358.655 150.673 346.958 97.384 375.128 90.3805Z" fill="#FFE3DF"/>
<path d="M394.196 112.836C396.186 115.034 398.433 116.984 400.89 118.645C400.567 119.469 400.024 120.187 399.319 120.722C398.614 121.256 397.775 121.586 396.895 121.674L394.196 112.836Z" fill="#D4827D"/>
<path d="M383.468 114.033C383.848 115.417 383.407 116.746 382.478 116.999C381.55 117.253 380.499 116.34 380.12 114.948C379.741 113.556 380.181 112.235 381.11 111.981C382.038 111.728 383.09 112.646 383.468 114.033Z" fill="#585979"/>
<path d="M380.744 112.152L383.434 110.146C383.434 110.146 382.619 113.093 380.744 112.152Z" fill="#585979"/>
<path d="M400.61 109.022C400.988 110.409 400.546 111.735 399.62 111.988C398.694 112.241 397.641 111.329 397.26 109.937C396.878 108.546 397.324 107.224 398.25 106.971C399.176 106.718 400.232 107.647 400.61 109.022Z" fill="#585979"/>
<path d="M397.886 107.154L400.575 105.147C400.575 105.147 399.77 108.093 397.886 107.154Z" fill="#585979"/>
<path d="M380.387 102.361C379.007 102.531 377.684 103.016 376.521 103.777C375.358 104.538 374.384 105.556 373.675 106.752" stroke="#585979" stroke-width="0.725" stroke-linecap="round" stroke-linejoin="round"/>
<path d="M392.539 98.5793C393.624 97.9977 394.828 97.6697 396.058 97.62C397.289 97.5702 398.515 97.8 399.644 98.2921" stroke="#585979" stroke-width="0.725" stroke-linecap="round" stroke-linejoin="round"/>
<path d="M363.699 123.578C363.699 123.578 368.164 107.672 364.288 97.21C364.288 97.21 394.488 75.1211 404.629 108.828C404.629 108.828 400.373 77.7151 371.055 84.2888C341.775 90.8536 348.979 133.989 367.199 142.955C367.199 142.955 360.959 133.515 363.699 123.578Z" fill="#585979"/>
<path d="M367.36 126.47C366.707 124.549 365.32 122.964 363.502 122.063C361.683 121.162 359.582 121.018 357.658 121.664C352.545 123.542 352.722 134.957 366.443 134.301C368.412 134.207 369.012 132.111 367.36 126.47Z" fill="#FFE3DF"/>
<path d="M400.106 128.078C399.713 130.179 399.472 132.305 399.386 134.441C399.012 134.492 398.641 134.545 398.266 134.576C393.182 135.14 390.638 133.722 389.36 131.98C388.753 131.117 388.363 130.12 388.222 129.074C388.121 128.485 388.103 127.884 388.169 127.29C391.461 128.335 394.939 128.66 398.368 128.244C399.439 128.175 400.106 128.078 400.106 128.078Z" fill="#585979"/>
<path d="M398.37 128.244L398.109 130.114C393.321 130.636 389.881 130.359 388.221 129.074C388.12 128.485 388.103 127.884 388.168 127.29C391.461 128.335 394.94 128.66 398.37 128.244Z" fill="white"/>
<path d="M398.266 134.576C393.182 135.141 390.638 133.722 389.36 131.98C391.296 131.803 393.249 131.97 395.127 132.473C396.367 132.828 397.466 133.564 398.266 134.576V134.576Z" fill="#DE5753"/>
<path d="M346.226 99.0974C346.226 99.0974 341.527 85.8057 325.443 88.5193C309.36 91.233 308.778 100.418 295.411 103.699C282.044 106.98 272.814 98.8721 271.578 91.5465C271.578 91.5465 267.87 95.7765 271.336 102.726C269.372 100.91 268.139 98.4381 267.87 95.7765C267.87 95.7765 263.033 105.945 274.686 118.71C286.338 131.474 307.771 128.499 315.587 123.029C335.47 109.12 345.853 115.319 345.853 115.319L346.226 99.0974Z" fill="#585979"/>
<path d="M344.056 113.384C344.056 113.384 335.488 108.239 320.53 120.528C305.573 132.816 286.155 136.157 278.893 127.113" stroke="#585979" stroke-width="0.5" stroke-linecap="round" stroke-linejoin="round"/>
<path d="M279.032 149.181C292.455 144.432 305.807 139.695 305.807 139.695C305.807 139.695 316.475 128.692 321.228 126.163C325.981 123.635 335.945 135.549 336.212 138.706C336.478 141.863 315.745 153.089 315.745 153.089L310.18 152.659C310.18 152.659 293.93 160.305 279.191 167.258L279.032 149.181Z" fill="#FFE3DF"/>
<path d="M290.867 143.706L296.004 162.508L321.364 157.236C321.364 157.236 325.101 184.655 310.559 194.02C310.559 194.02 244.391 194.46 238.792 183.094C233.192 171.727 244.515 157.312 290.867 143.706Z" fill="url(#paint9_linear)"/>
<path opacity="0.1" d="M238.806 183.095C244.398 194.448 310.55 194.017 310.55 194.017C325.093 184.658 321.361 157.243 321.361 157.243L305.643 160.516L295.995 162.516L290.859 143.709C244.517 157.316 233.186 171.722 238.806 183.095Z" fill="white"/>
<path opacity="0.2" d="M270.619 173.928C270.619 173.928 288.501 173.321 297.163 169.45C299.142 168.668 300.925 167.463 302.39 165.92C303.854 164.377 304.964 162.533 305.642 160.517L295.994 162.518L270.619 173.928Z" fill="black"/>
<path d="M1553.35 503.288L1551.71 486.806L1528.49 486.377L1507.17 486.02L1505.94 505.907L1531.04 504.532L1553.35 503.288Z" fill="#FFD4CE"/>
<path d="M1550.3 483.376C1548.49 483.599 1552.13 505.789 1552.13 505.789C1552.13 505.789 1567.47 518.139 1571.94 531.175C1576.4 544.211 1583.67 535.956 1582.19 521.039C1580.71 506.122 1579.58 494.739 1578.52 484.141C1577.45 473.542 1569.1 481.062 1550.3 483.376Z" fill="#43446C"/>
<path d="M1559.02 516.968C1559.14 517.662 1559.02 518.375 1558.68 518.991C1558.42 519.342 1558.06 519.605 1557.64 519.743C1557.23 519.882 1556.78 519.891 1556.36 519.768C1556.03 519.716 1555.71 519.597 1555.43 519.418C1555.15 519.239 1554.91 519.004 1554.73 518.727C1553.93 517.205 1553.56 515.49 1553.68 513.774C1552.89 515.685 1551.87 517.392 1550.71 517.578C1549.95 517.696 1549.27 517.265 1548.68 516.295C1548.42 515.869 1548.25 515.392 1548.18 514.894C1548.12 514.397 1548.17 513.892 1548.32 513.414C1549.27 510.276 1554.26 507.888 1554.52 507.766C1554.59 507.729 1554.68 507.71 1554.76 507.709C1554.82 507.707 1554.89 507.716 1554.95 507.734C1555.01 507.754 1555.07 507.783 1555.12 507.819V507.819C1555.18 507.865 1555.24 507.923 1555.28 507.991C1557.04 510.743 1558.31 513.781 1559.02 516.968ZM1554.94 515.454C1554.98 516.364 1555.24 517.251 1555.69 518.039C1555.79 518.186 1555.91 518.311 1556.05 518.408C1556.2 518.505 1556.36 518.57 1556.54 518.599C1557.43 518.734 1557.63 518.433 1557.7 518.335C1558.46 517.196 1556.83 513.228 1555.11 510.075C1554.86 511.861 1554.81 513.667 1554.93 515.464L1554.94 515.454ZM1549.35 514.683C1549.39 515.039 1549.51 515.382 1549.7 515.685C1549.87 515.976 1550.21 516.456 1550.53 516.407C1551.52 516.25 1552.94 512.885 1553.87 509.453C1552.4 510.303 1550 511.937 1549.46 513.759C1549.36 514.056 1549.32 514.37 1549.34 514.683H1549.35Z" fill="url(#paint10_linear)"/>
<path opacity="0.2" d="M1531.55 504.479L1528.94 486.328L1507.4 485.993L1506.05 505.892L1531.55 504.479Z" fill="black"/>
<path d="M1284.36 365.254C1284.36 365.254 1339.98 369 1413.55 465.003L1518.61 481.659L1524.17 507.569C1524.17 507.569 1422.06 512.096 1391.21 501.517C1360.36 490.938 1298.62 432.271 1298.62 432.271L1246.64 390.542L1284.36 365.254Z" fill="url(#paint11_linear)"/>
<path opacity="0.6" d="M1524.17 507.552C1524.17 507.552 1422.05 512.084 1391.21 501.502C1360.38 490.921 1298.63 432.256 1298.63 432.256L1246.65 390.542L1284.37 365.264C1284.37 365.264 1327.41 368.155 1387.86 434.24C1393.61 440.536 1399.54 447.369 1405.59 454.865C1408.21 458.131 1410.87 461.511 1413.55 465.005L1518.61 481.662L1524.17 507.552Z" fill="white"/>
<path opacity="0.2" d="M1405.59 454.865C1389.43 457.608 1367.33 456.286 1340.58 442.25L1375.37 432.159L1387.86 434.241C1393.61 440.536 1399.54 447.37 1405.59 454.865Z" fill="black"/>
<path d="M1516.06 479.962L1521.86 510.073L1527.76 509.453L1521.88 481.179L1516.06 479.962Z" fill="url(#paint12_linear)"/>
<path d="M1616.97 391.944L1608.68 377.595L1587.34 386.773L1567.78 395.223L1574.84 413.856L1597.15 402.263L1616.97 391.944Z" fill="#FFD4CE"/>
<path d="M1605.99 375.052C1604.43 376.003 1616.89 394.721 1616.89 394.721C1616.89 394.721 1635.95 399.657 1645.39 409.695C1654.83 419.732 1658.05 409.205 1650.56 396.237C1643.06 383.27 1637.34 373.347 1632.02 364.125C1626.69 354.903 1622.16 365.201 1605.99 375.052Z" fill="#43446C"/>
<path d="M1627.77 402.074C1628.16 402.657 1628.35 403.357 1628.29 404.058C1628.2 404.612 1627.81 405.352 1626.49 405.724C1626.17 405.813 1625.83 405.835 1625.5 405.787C1625.17 405.739 1624.86 405.624 1624.58 405.447C1623.22 404.391 1622.18 402.977 1621.58 401.364C1621.65 403.429 1621.43 405.408 1620.44 406.055C1620.06 406.255 1619.62 406.331 1619.2 406.271C1618.77 406.211 1618.38 406.019 1618.07 405.722C1617.65 405.444 1617.3 405.079 1617.03 404.652C1616.77 404.224 1616.61 403.745 1616.55 403.248C1616.12 399.992 1619.68 395.765 1619.87 395.547C1619.92 395.485 1619.98 395.434 1620.06 395.397V395.397C1620.11 395.369 1620.17 395.35 1620.24 395.341V395.341C1620.3 395.33 1620.37 395.33 1620.43 395.341C1620.5 395.356 1620.58 395.387 1620.64 395.431C1623.38 397.216 1625.79 399.464 1627.77 402.074V402.074ZM1623.42 402.376C1623.83 403.19 1624.43 403.892 1625.17 404.423C1625.31 404.519 1625.48 404.582 1625.65 404.611C1625.82 404.639 1626 404.631 1626.17 404.587C1627.04 404.342 1627.1 403.982 1627.12 403.865C1627.35 402.515 1624.22 399.573 1621.35 397.408C1621.87 399.13 1622.57 400.794 1623.42 402.376V402.376ZM1618.01 403.975C1618.19 404.285 1618.44 404.548 1618.74 404.747C1619.02 404.94 1619.53 405.237 1619.79 405.065C1620.64 404.512 1620.54 400.859 1619.98 397.352C1618.63 398.973 1617.83 400.988 1617.72 403.096C1617.76 403.405 1617.86 403.704 1618.01 403.975V403.975Z" fill="url(#paint13_linear)"/>
<path opacity="0.2" d="M1597.59 402.008L1587.74 386.545L1567.98 395.118L1574.94 413.807L1597.59 402.008Z" fill="black"/>
<path d="M1210.24 357.565C1210.24 357.565 1207.24 402.045 1204.14 404.467C1201.04 406.89 1148.71 444.185 1148.71 444.185C1148.71 444.185 1130.63 447.093 1124.9 450C1119.16 452.908 1124 470.835 1126.91 473.255C1129.82 475.675 1155.01 463.082 1155.01 463.082L1158.4 457.341C1158.4 457.341 1215.15 424.805 1220.45 421.898C1225.75 418.99 1237.98 368.255 1237.98 368.255L1210.24 357.565Z" fill="#FFD4CE"/>
<path d="M1218.67 333.257C1201.52 339.058 1204.31 381.21 1204.31 381.21L1235.15 390.9L1241.89 377.818L1218.67 333.257Z" fill="url(#paint14_linear)"/>
<path opacity="0.2" d="M1218.67 333.257C1201.52 339.058 1204.31 381.21 1204.31 381.21L1235.15 390.9L1241.89 377.818L1218.67 333.257Z" fill="black"/>
<path d="M1315 376.97C1315 376.97 1367.22 357.47 1473.81 414.643L1576.42 386.54L1592.15 407.851C1592.15 407.851 1500.97 454.04 1468.5 457.109C1436.03 460.178 1355.6 432.151 1355.6 432.151L1291.05 415.549L1315 376.97Z" fill="url(#paint15_linear)"/>
<path opacity="0.6" d="M1315 376.97C1315 376.97 1367.22 357.47 1473.81 414.643L1576.42 386.54L1592.15 407.851C1592.15 407.851 1500.97 454.04 1468.5 457.109C1436.03 460.178 1355.6 432.151 1355.6 432.151L1291.05 415.549L1315 376.97Z" fill="white"/>
<path d="M1571.68 385.25H1577.82L1595.26 408.184L1589.13 411.738L1571.68 385.25Z" fill="url(#paint16_linear)"/>
<path d="M1235.15 245.237C1235.15 245.237 1261.76 234.89 1281.21 252.509C1293.48 263.627 1322.16 290.576 1337.18 281.385C1352.2 272.195 1376.43 263.906 1387.56 275.316C1387.56 275.316 1369.15 274.091 1359.95 281.385C1359.95 281.385 1377.39 276.526 1383.69 281.385C1389.99 286.245 1399.68 284.109 1399.68 284.109C1399.68 284.109 1407.76 310.073 1364.95 313.177C1364.95 313.177 1387.08 317.632 1397.25 308.966C1397.25 308.966 1400.16 327.457 1350.26 333.257C1300.35 339.058 1256.86 330.531 1246.63 315.656C1236.4 300.78 1235.15 245.237 1235.15 245.237Z" fill="#43446C"/>
<path d="M1364.96 371.044C1364.96 371.044 1355.28 421.013 1317.17 428.655C1311.15 429.943 1304.94 430.085 1298.87 429.072C1287.18 426.848 1276.86 420.073 1270.16 410.235C1268.13 407.486 1266.42 404.521 1265.04 401.393L1320.35 373.371L1324.91 371.044C1332.06 369.57 1339.32 368.637 1346.61 368.252C1353.71 367.958 1360.84 368.497 1364.96 371.044Z" fill="url(#paint17_linear)"/>
<path opacity="0.2" d="M1331.06 403.328C1320.08 415.085 1309.84 423.732 1298.87 429.072C1287.18 426.848 1276.85 420.072 1270.16 410.235C1286.21 397.039 1302.96 384.733 1320.35 373.371L1324.91 371.044C1332.06 369.57 1339.32 368.637 1346.61 368.252C1349.16 375.404 1346.34 386.966 1331.06 403.328Z" fill="black"/>
<path d="M1218.67 333.257C1252.07 322.122 1287.82 319.965 1322.33 327.001C1322.33 327.001 1341.06 358.109 1346.87 382.665C1346.87 382.665 1317.42 425.946 1277.24 424.653C1237.05 423.36 1218.67 333.257 1218.67 333.257Z" fill="url(#paint18_linear)"/>
<path d="M1305.85 334.536C1305.85 334.536 1268.94 308.401 1240.56 333.258" stroke="#43446C" stroke-width="0.5" stroke-linecap="round" stroke-linejoin="round"/>
<path d="M1214.63 286.527C1214.63 286.527 1211.58 232.661 1258.82 245.673C1318.11 262.006 1282.93 333.147 1253.76 323.717C1224.58 314.286 1214.63 286.527 1214.63 286.527Z" fill="#43446C"/>
<path d="M1291.06 329.527C1291.06 329.527 1280.33 359.41 1261.76 357.475C1256.84 356.945 1252.15 355.123 1248.16 352.193C1244.17 349.263 1241.03 345.331 1239.05 340.794C1238.64 339.92 1238.28 339.02 1237.98 338.1C1237.98 338.1 1247.43 335.283 1241.43 327.004L1264.68 308.952C1264.65 311.447 1264.77 313.941 1265.04 316.422C1265.58 320.831 1266.76 325.755 1269.5 327.004C1274.69 329.38 1291.06 329.527 1291.06 329.527Z" fill="#FFD4CE"/>
<path opacity="0.2" d="M1265.04 316.422C1263.16 327.029 1257.3 343.268 1239.05 340.794C1238.64 339.92 1238.28 339.02 1237.98 338.1C1237.98 338.1 1247.43 335.283 1241.43 327.004L1264.68 308.952C1264.65 311.447 1264.77 313.941 1265.04 316.422Z" fill="black"/>
<path d="M1245.71 258.936C1224.89 257.339 1217.33 267.972 1214.16 289.309C1210.2 315.974 1214.68 335.476 1241.15 331.746C1277.09 326.68 1280.28 261.586 1245.71 258.936Z" fill="#FFD4CE"/>
<path d="M1227.71 289.177C1225.8 292.16 1223.55 294.902 1220.99 297.346C1221.53 298.253 1222.32 298.992 1223.25 299.481C1224.19 299.971 1225.24 300.193 1226.3 300.121L1227.71 289.177Z" fill="#D4827D"/>
<path d="M1240.58 288.452C1240.41 290.167 1241.19 291.636 1242.33 291.749C1243.47 291.862 1244.54 290.571 1244.7 288.866C1244.87 287.161 1244.09 285.682 1242.95 285.567C1241.82 285.452 1240.75 286.745 1240.58 288.452Z" fill="#43446C"/>
<path d="M1243.42 285.707L1239.85 283.879C1239.85 283.879 1241.39 287.176 1243.42 285.707Z" fill="#43446C"/>
<path d="M1219.4 285.969C1219.23 287.684 1220.01 289.153 1221.15 289.266C1222.28 289.379 1223.35 288.09 1223.52 286.383C1223.68 284.676 1222.91 283.199 1221.77 283.086C1220.63 282.973 1219.57 284.262 1219.4 285.969Z" fill="#43446C"/>
<path d="M1222.23 283.215L1218.66 281.386C1218.66 281.386 1220.2 284.695 1222.23 283.215Z" fill="#43446C"/>
<path d="M1241.89 274.091C1243.55 274.017 1245.21 274.324 1246.73 274.99C1248.26 275.656 1249.61 276.662 1250.68 277.932" stroke="#43446C" stroke-width="0.725" stroke-linecap="round" stroke-linejoin="round"/>
<path d="M1226.83 272.051C1225.43 271.582 1223.95 271.435 1222.49 271.621C1221.03 271.808 1219.63 272.322 1218.4 273.126" stroke="#43446C" stroke-width="0.725" stroke-linecap="round" stroke-linejoin="round"/>
<path d="M1265.77 295.769C1265.77 295.769 1257.35 277.917 1259.83 264.825C1259.83 264.825 1219.87 244.808 1214.62 286.527C1214.62 286.527 1213.44 249.036 1249.3 250.951C1285.09 252.862 1285.18 305.104 1265.5 319.291C1265.5 319.286 1270.97 306.928 1265.77 295.769Z" fill="#43446C"/>
<path d="M1262.03 299.913C1262.42 297.52 1263.74 295.378 1265.7 293.954C1267.66 292.531 1270.11 291.944 1272.5 292.32C1278.9 293.52 1280.96 307 1264.67 308.954C1262.33 309.221 1261.2 306.875 1262.03 299.913Z" fill="#FFD4CE"/>
<path d="M1223.77 308.305C1224.66 310.7 1225.36 313.156 1225.89 315.653C1226.34 315.638 1226.79 315.626 1227.24 315.587C1233.33 315.244 1236.05 313.069 1237.21 310.762C1237.75 309.624 1238.02 308.372 1237.97 307.112C1237.97 306.397 1237.87 305.685 1237.68 304.998C1234.01 306.885 1229.97 307.96 1225.85 308.15C1224.58 308.285 1223.77 308.305 1223.77 308.305Z" fill="#43446C"/>
<path d="M1225.85 308.153L1226.53 310.306C1232.27 309.968 1236.27 308.957 1237.97 307.122C1237.97 306.407 1237.87 305.696 1237.68 305.008C1234.01 306.893 1229.97 307.966 1225.85 308.153Z" fill="white"/>
<path d="M1227.24 315.59C1233.34 315.247 1236.05 313.072 1237.21 310.764C1234.9 310.936 1232.63 311.517 1230.52 312.479C1229.12 313.147 1227.98 314.235 1227.24 315.59V315.59Z" fill="#EC7774"/>
<path d="M1246.02 260.541C1246.02 260.541 1251.78 295.441 1273.38 296.656C1294.99 297.87 1265.02 251.943 1265.02 251.943C1265.02 251.943 1230.84 235.963 1212.04 253.325C1193.24 270.687 1214.62 286.527 1214.62 286.527C1214.62 286.527 1215.33 259.897 1246.02 260.541Z" fill="#43446C"/>
<path d="M1246.41 258.124C1246.41 258.124 1242.07 281.317 1258.51 290.836" stroke="#43446C" stroke-width="0.5" stroke-linecap="round" stroke-linejoin="round"/>
<path d="M1240.56 333.257C1231.51 341.186 1279.04 358.438 1305.85 334.536" stroke="#43446C" stroke-width="0.5" stroke-linecap="round" stroke-linejoin="round"/>
<path d="M1304.67 334.536L1313.77 330.82L1316.78 333.257L1314.41 336.312L1304.67 334.536Z" fill="url(#paint19_linear)"/>
<path opacity="0.6" d="M1304.67 334.536L1313.77 330.82L1316.78 333.257L1314.41 336.312L1304.67 334.536Z" fill="white"/>
<path d="M1350.33 334.482C1350.33 334.482 1397.31 345.24 1405.87 347.496C1414.42 349.752 1475.06 375.802 1475.06 375.802C1475.06 375.802 1496.75 367.572 1499.21 369.999C1501.68 372.427 1507.1 384.752 1506.61 387.711C1506.12 390.67 1475.55 396.586 1474.07 395.598C1471.92 393.461 1469.94 391.153 1468.16 388.696C1468.16 388.696 1408.01 367.631 1396.67 365.096C1385.34 362.56 1346.88 359.217 1346.88 359.217L1350.33 334.482Z" fill="#FFD4CE"/>
<path d="M1322.33 327.001C1322.33 327.001 1322.33 357.566 1340.58 368.179L1373.09 365.264L1381.76 337.605C1381.76 337.605 1351.56 327.54 1322.33 327.001Z" fill="url(#paint20_linear)"/>
<path opacity="0.2" d="M1322.33 327.001C1322.33 327.001 1322.33 357.566 1340.58 368.179L1373.09 365.264L1381.76 337.605C1381.76 337.605 1351.56 327.54 1322.33 327.001Z" fill="black"/>
<path d="M2267.59 78.7614L2266.18 66.9188C2265.97 65.0766 2265.32 63.311 2264.3 61.7645C2263.28 60.218 2261.9 58.9341 2260.29 58.0164C2258.68 57.0988 2256.87 56.5732 2255.02 56.4822C2253.17 56.3911 2251.32 56.7371 2249.63 57.4923L2249.54 57.5292C2240.04 61.8677 2226.73 154.867 2226.73 154.867C2226.73 154.867 2212.44 174.985 2212.91 178.611C2213.37 182.236 2230.49 191.768 2232.54 188.1C2234.59 184.432 2248.01 173.596 2248.08 167.41C2248.16 161.224 2241.51 155.526 2241.51 155.526C2241.51 155.526 2262.15 93.9959 2267.59 78.7614Z" fill="#FFDCD0"/>
<path opacity="0.1" d="M2267.59 78.7614L2266.18 66.9188C2265.97 65.0766 2265.32 63.311 2264.3 61.7645C2263.28 60.218 2261.9 58.9341 2260.29 58.0164C2258.68 57.0988 2256.87 56.5732 2255.02 56.4822C2253.17 56.3911 2251.32 56.7371 2249.63 57.4923L2249.54 57.5292C2240.04 61.8677 2226.73 154.867 2226.73 154.867C2226.73 154.867 2212.44 174.985 2212.91 178.611C2213.37 182.236 2230.49 191.768 2232.54 188.1C2234.59 184.432 2248.01 173.596 2248.08 167.41C2248.16 161.224 2241.51 155.526 2241.51 155.526C2241.51 155.526 2262.15 93.9959 2267.59 78.7614Z" fill="black"/>
<path d="M2270.86 131.918L2256.1 109.184C2256.1 109.184 2250.89 88.2502 2269.38 83.1091L2283.75 86.3311L2270.86 131.918Z" fill="url(#paint21_linear)"/>
<path opacity="0.5" d="M2270.86 131.918L2256.1 109.184C2256.1 109.184 2250.89 88.2502 2269.38 83.1091L2283.75 86.3311L2270.86 131.918Z" fill="white"/>
<path d="M2603.39 359.227L2598.48 378.471L2553.49 368.693L2558.41 349.427L2603.39 359.227Z" fill="#FFDCD0"/>
<path d="M2597.28 379.464L2589.05 356.786C2588.92 356.414 2588.91 356.008 2589.04 355.634C2589.17 355.261 2589.42 354.941 2589.75 354.729L2605.04 345.014C2605.7 344.606 2606.5 344.475 2607.26 344.652C2608.01 344.828 2608.67 345.296 2609.08 345.954C2609.19 346.138 2609.29 346.334 2609.36 346.537C2611.9 353.918 2613.39 359.427 2616.74 368.642C2618.8 374.316 2625.61 391.224 2628.45 399.067C2631.3 406.91 2623.92 410.737 2622.05 407.788C2613.69 394.535 2605.41 385.284 2599.61 382.177C2598.51 381.605 2597.68 380.634 2597.28 379.464V379.464Z" fill="#484D58"/>
<path d="M2602.8 384.451C2603.36 385.682 2603.49 387.069 2603.15 388.38C2602.99 388.828 2602.72 389.227 2602.37 389.541C2602.01 389.854 2601.58 390.071 2601.11 390.17C2600.86 390.27 2600.58 390.294 2600.31 390.239C2600.04 390.183 2599.79 390.051 2599.6 389.857C2597.78 388.179 2599.29 380.803 2599.48 379.982C2599.49 379.891 2599.53 379.807 2599.6 379.741C2599.66 379.675 2599.74 379.63 2599.83 379.615C2599.92 379.594 2600.02 379.601 2600.11 379.634C2600.2 379.667 2600.27 379.725 2600.33 379.802C2601.32 381.255 2602.15 382.815 2602.8 384.451V384.451ZM2599.94 388.633C2599.99 388.836 2600.11 389.02 2600.26 389.161C2600.31 389.279 2600.53 389.361 2600.89 389.257C2601.2 389.187 2601.48 389.044 2601.72 388.84C2601.96 388.635 2602.15 388.376 2602.26 388.084C2602.45 385.645 2601.71 383.225 2600.18 381.314C2599.64 383.716 2599.56 386.2 2599.95 388.631L2599.94 388.633Z" fill="#407BFF"/>
<path d="M2600.39 379.925L2600.47 380.137C2600.12 382.441 2597.37 387.661 2595.26 387.996C2594.91 388.05 2594.55 387.979 2594.24 387.797C2593.93 387.614 2593.7 387.33 2593.58 386.995C2593.41 386.675 2593.32 386.324 2593.3 385.965C2593.28 385.606 2593.34 385.246 2593.47 384.911C2594.44 382.111 2599.64 379.713 2599.89 379.594C2599.97 379.564 2600.06 379.554 2600.14 379.566C2600.23 379.577 2600.31 379.61 2600.38 379.66C2600.41 379.745 2600.41 379.837 2600.39 379.925ZM2594.18 386.425L2594.26 386.64C2594.46 387.21 2594.81 387.137 2594.94 387.118C2596.24 386.914 2598.48 383.41 2599.24 380.963C2597.16 381.859 2595.4 383.369 2594.2 385.29C2594.06 385.653 2594.06 386.054 2594.19 386.418L2594.18 386.425Z" fill="#407BFF"/>
<path opacity="0.2" d="M2558.43 349.432L2553.52 368.698L2576.72 373.729L2581.63 354.463L2558.43 349.432Z" fill="black"/>
<path d="M2579.16 350.164L2567.25 376.102C2567.25 376.102 2462.54 364.747 2437.15 328.822C2418.25 302.113 2407.02 250.243 2402.5 225.374C2400.93 216.779 2400.17 211.418 2400.17 211.418L2381 160.049L2474.33 159.514C2474.33 159.514 2463.73 216.699 2465.29 259.41C2465.91 276.257 2468.41 290.834 2474.22 298.776C2494.74 326.871 2579.16 350.164 2579.16 350.164Z" fill="url(#paint22_linear)"/>
<path opacity="0.2" d="M2474.33 159.514C2474.33 159.514 2463.73 216.699 2465.29 259.41C2456.43 249.351 2449.74 237.579 2445.63 224.824C2433.7 227.848 2415.7 226.811 2402.5 225.374C2400.93 216.779 2400.17 211.418 2400.17 211.418L2381 160.049L2474.33 159.514Z" fill="black"/>
<path d="M2720.35 351.574L2708.63 367.606L2670.53 341.779L2682.26 325.729L2720.35 351.574Z" fill="#FFDCD0"/>
<path d="M2707.15 368.077L2707.95 343.962C2707.97 343.567 2708.12 343.188 2708.37 342.889C2708.63 342.589 2708.98 342.386 2709.37 342.313L2727.18 338.99C2727.94 338.857 2728.73 339.032 2729.37 339.477C2730 339.921 2730.44 340.6 2730.57 341.363C2730.61 341.577 2730.63 341.795 2730.62 342.012C2730.23 349.809 2729.56 355.476 2729.23 365.27C2729.03 371.306 2729.05 389.533 2728.78 397.866C2728.5 406.2 2720.23 407.01 2719.59 403.574C2716.77 388.162 2712.53 376.493 2708.3 371.449C2707.5 370.515 2707.08 369.307 2707.15 368.077Z" fill="#484D58"/>
<path d="M2710.41 374.757C2710.47 376.109 2710.07 377.442 2709.28 378.536C2708.96 378.892 2708.56 379.162 2708.11 379.32C2707.67 379.478 2707.18 379.518 2706.72 379.438C2706.44 379.435 2706.18 379.353 2705.95 379.201C2705.72 379.05 2705.54 378.836 2705.43 378.585C2704.37 376.35 2708.52 370.076 2709 369.375C2709.04 369.294 2709.11 369.23 2709.2 369.192C2709.28 369.154 2709.38 369.144 2709.47 369.164C2709.56 369.181 2709.65 369.224 2709.72 369.289C2709.79 369.354 2709.84 369.437 2709.86 369.53C2710.24 371.246 2710.42 373 2710.41 374.757V374.757ZM2706.2 377.573C2706.17 377.783 2706.21 377.995 2706.3 378.185C2706.3 378.311 2706.47 378.468 2706.85 378.504C2707.16 378.555 2707.48 378.529 2707.78 378.429C2708.08 378.329 2708.35 378.158 2708.56 377.93C2709.65 375.737 2709.86 373.214 2709.15 370.872C2707.75 372.896 2706.75 375.171 2706.2 377.573Z" fill="#407BFF"/>
<path d="M2709.88 369.658L2709.87 369.886C2708.69 371.894 2704.19 375.711 2702.11 375.251C2701.76 375.168 2701.45 374.968 2701.23 374.684C2701.02 374.4 2700.91 374.05 2700.92 373.693C2700.89 373.335 2700.93 372.974 2701.04 372.633C2701.16 372.293 2701.35 371.981 2701.59 371.718C2703.55 369.483 2709.26 369.194 2709.54 369.178C2709.62 369.18 2709.71 369.204 2709.78 369.246C2709.85 369.289 2709.92 369.349 2709.96 369.421C2709.96 369.507 2709.93 369.589 2709.88 369.658V369.658ZM2701.69 373.379L2701.68 373.608C2701.66 374.212 2702 374.274 2702.13 374.293C2703.41 374.587 2706.81 372.172 2708.41 370.178C2706.15 370.236 2703.95 370.983 2702.12 372.319C2701.85 372.607 2701.7 372.985 2701.69 373.379L2701.69 373.379Z" fill="#407BFF"/>
<path opacity="0.2" d="M2682.27 325.734L2670.54 341.784L2690.2 355.091L2701.93 339.041L2682.27 325.734Z" fill="black"/>
<path d="M2696.2 328.797L2675.91 355.142C2675.91 355.142 2579.16 309.586 2543.12 277.248C2527.84 263.552 2469.89 200.893 2456.04 185.892C2454.11 183.803 2453.04 182.648 2453.04 182.648L2386.4 144.704L2422.67 69.7853C2422.67 69.7853 2442.87 73.1259 2467.02 90.0335C2470.59 92.5182 2474.26 95.3133 2477.96 98.4489C2492.24 110.663 2504.34 125.211 2513.75 141.474C2516.22 145.644 2518.59 150.064 2520.88 154.734C2570.92 257.138 2696.2 328.797 2696.2 328.797Z" fill="url(#paint23_linear)"/>
<path d="M2265.64 119.181C2265.64 119.181 2282.62 80.1438 2350.21 66.4315C2417.79 52.7192 2475.55 86.5533 2475.55 86.5533C2475.55 86.5533 2499.26 170.238 2433.09 202.097C2409.22 213.594 2379.57 203.1 2379.57 203.1L2370.02 175.244C2370.02 175.244 2277.15 145.075 2265.64 119.181Z" fill="#407BFF"/>
<path opacity="0.8" d="M2478.78 135.575C2476.71 152.595 2470.58 171.111 2456.03 185.893C2449.4 192.592 2441.63 198.076 2433.1 202.093C2409.21 213.597 2379.57 203.093 2379.57 203.093L2370.01 175.247C2370.01 175.247 2277.14 145.065 2265.65 119.177C2265.65 119.177 2282.63 80.1522 2350.21 66.428C2417.8 52.7038 2475.55 86.5498 2475.55 86.5498C2475.55 86.5498 2475.69 87.0761 2475.93 88.0589C2476.41 89.9757 2477.23 93.602 2477.96 98.4491C2479.92 110.729 2480.2 123.22 2478.78 135.575Z" fill="white"/>
<path d="M2418.29 51.0115C2418.29 51.0115 2467.8 21.833 2479.5 16.7862C2491.2 11.7394 2586.23 75.761 2586.23 75.761C2586.23 75.761 2616.12 79.2873 2619.02 82.6716C2621.92 86.056 2616.54 109.344 2611.55 108.192C2606.56 107.039 2585.78 110.327 2580.13 105.331C2574.49 100.335 2574.75 89.6648 2574.75 89.6648C2574.75 89.6648 2485.17 50.5951 2480.04 48.9305C2476.33 47.729 2431.58 78.6304 2431.58 78.6304L2418.29 51.0115Z" fill="#FFDCD0"/>
<path opacity="0.2" d="M2513.75 141.474C2501.99 140.135 2490.32 138.166 2478.78 135.575C2425.05 123.351 2409.24 102.788 2409.24 102.788L2467.02 90.0338L2475.93 88.0589C2476.41 89.9757 2477.23 93.6021 2477.96 98.4492C2492.24 110.664 2504.34 125.212 2513.75 141.474V141.474Z" fill="black"/>
<path d="M2320.03 123.174C2315.65 124.483 2310.99 124.588 2306.56 123.478C2292.73 120.12 2283.47 106.65 2283.47 106.65C2284.77 87.923 2302.2 78.8067 2317.72 75.8247C2324.28 74.3458 2331.07 74.227 2337.68 75.4756C2351.03 78.9496 2340.97 117.003 2320.03 123.174Z" fill="#FFDCD0"/>
<path opacity="0.2" d="M2306.56 123.476C2292.73 120.118 2283.47 106.648 2283.47 106.648C2284.76 87.9212 2302.19 78.8049 2317.72 75.8228C2321.28 86.2326 2325.07 107.186 2306.56 123.476Z" fill="black"/>
<path d="M2280.46 117.56C2282.85 129.963 2308.89 152.851 2342.64 165.354C2342.64 165.354 2301.82 162.834 2278.97 140.672C2256.12 118.509 2262.55 110.314 2278.39 101.272L2280.46 117.56Z" fill="url(#paint24_linear)"/>
<path opacity="0.4" d="M2280.46 117.56C2282.85 129.963 2308.89 152.851 2342.64 165.354C2342.64 165.354 2301.82 162.834 2278.97 140.672C2256.12 118.509 2262.55 110.314 2278.39 101.272L2280.46 117.56Z" fill="white"/>
<path d="M2316.28 73.3569C2344.15 67.7573 2342.67 78.9214 2359.17 94.7882C2392.78 127.112 2549.76 103.343 2549.76 103.343C2549.76 103.343 2512.06 63.4592 2458.33 54.8145C2404.61 46.1699 2316.28 73.3569 2316.28 73.3569Z" fill="url(#paint25_linear)"/>
<path opacity="0.4" d="M2316.28 73.3569C2344.15 67.7573 2342.67 78.9214 2359.17 94.7882C2392.78 127.112 2549.76 103.343 2549.76 103.343C2549.76 103.343 2512.06 63.4592 2458.33 54.8145C2404.61 46.1699 2316.28 73.3569 2316.28 73.3569Z" fill="white"/>
<path d="M2263.63 119.566C2263.63 119.566 2260.03 91.7031 2296.75 72.2622C2333.47 52.8212 2371.99 84.4834 2371.99 84.4834L2357.5 84.8731L2359.17 94.7874C2359.17 94.7874 2332.53 78.4735 2310.07 83.2018C2287.6 87.9301 2280.47 117.562 2280.47 117.562L2269.61 109.097L2263.63 119.566Z" fill="url(#paint26_linear)"/>
<path opacity="0.5" d="M2263.63 119.566C2263.63 119.566 2260.03 91.7031 2296.75 72.2622C2333.47 52.8212 2371.99 84.4834 2371.99 84.4834L2357.5 84.8731L2359.17 94.7874C2359.17 94.7874 2332.53 78.4735 2310.07 83.2018C2287.6 87.9301 2280.47 117.562 2280.47 117.562L2269.61 109.097L2263.63 119.566Z" fill="white"/>
<path d="M2255.56 46.3307C2255.56 46.3307 2253.95 73.9684 2269.38 83.1093C2284.82 92.2501 2280.12 41.5187 2280.12 41.5187L2255.56 46.3307Z" fill="#484D58"/>
<path d="M2313.38 100.878C2310.77 105.644 2306.66 109.421 2301.69 111.628C2296.72 113.834 2291.16 114.35 2285.87 113.095C2279 111.599 2272.95 107.541 2268.96 101.747C2268.4 100.942 2267.88 100.109 2267.41 99.2501C2258.75 83.2612 2253.78 54.3354 2270.38 41.7856C2274.04 38.9962 2278.34 37.1877 2282.89 36.532C2287.44 35.8763 2292.08 36.3953 2296.37 38.0395C2300.67 39.6837 2304.47 42.3986 2307.41 45.9258C2310.36 49.4531 2312.35 53.6756 2313.21 58.1917C2317.18 77.463 2320.42 88.604 2313.38 100.878Z" fill="#FFDCD0"/>
<path d="M2285.79 71.2263C2286.31 72.7311 2285.73 74.238 2284.7 74.511C2283.67 74.7839 2282.53 73.7328 2282.11 72.1945C2281.69 70.6563 2282.19 69.1753 2283.2 68.9099C2284.21 68.6444 2285.36 69.6619 2285.79 71.2263Z" fill="#484D58"/>
<path d="M2268.29 75.9077C2268.81 77.4122 2268.21 78.9268 2267.21 79.1923C2266.2 79.4578 2265.04 78.4142 2264.62 76.8759C2264.2 75.3377 2264.7 73.8564 2265.71 73.5912C2266.71 73.326 2267.9 74.433 2268.29 75.9077Z" fill="#484D58"/>
<path d="M2274.06 75.1793C2273.48 80.406 2272.18 85.5275 2270.2 90.3978C2271.46 90.8751 2272.82 91.0684 2274.17 90.9641C2275.53 90.8598 2276.84 90.4605 2278.02 89.7942L2274.06 75.1793Z" fill="#FFBCB0"/>
<path d="M2289.7 64.1076C2289.54 64.1742 2289.36 64.1973 2289.19 64.1744C2289.02 64.1515 2288.86 64.0835 2288.72 63.9773C2287.81 63.2316 2286.73 62.7089 2285.58 62.4508C2284.43 62.1927 2283.24 62.2062 2282.09 62.4903C2281.98 62.5305 2281.85 62.5475 2281.73 62.5403C2281.61 62.5331 2281.49 62.5019 2281.38 62.4484C2281.27 62.3948 2281.17 62.3201 2281.09 62.2285C2281.01 62.1368 2280.94 62.0299 2280.9 61.9141C2280.86 61.7982 2280.85 61.6756 2280.85 61.5531C2280.86 61.4307 2280.89 61.3108 2280.95 61.2005C2281 61.0901 2281.07 60.9913 2281.16 60.9098C2281.26 60.8284 2281.36 60.7657 2281.48 60.7255V60.7255C2282.92 60.3286 2284.43 60.2818 2285.89 60.5892C2287.34 60.8966 2288.71 61.5492 2289.86 62.4922C2289.96 62.5647 2290.04 62.656 2290.11 62.761C2290.17 62.8659 2290.21 62.9823 2290.23 63.1036C2290.25 63.2249 2290.25 63.3486 2290.22 63.4678C2290.19 63.5869 2290.13 63.6991 2290.06 63.7979L2290.05 63.8167C2289.95 63.9309 2289.83 64.029 2289.7 64.1076V64.1076Z" fill="#484D58"/>
<path d="M2259.16 71.887C2259.01 72.0014 2258.83 72.0648 2258.64 72.0681C2258.52 72.0469 2258.4 72.0021 2258.3 71.9362C2258.2 71.8703 2258.11 71.7847 2258.04 71.6842C2257.97 71.5836 2257.92 71.4702 2257.89 71.3505C2257.86 71.2307 2257.86 71.107 2257.88 70.9864L2257.88 70.9669C2258.13 69.4927 2258.73 68.1001 2259.63 66.9066C2260.53 65.7131 2261.71 64.7538 2263.06 64.1095C2263.17 64.0631 2263.29 64.0395 2263.41 64.0402C2263.54 64.0408 2263.66 64.0657 2263.77 64.1134C2263.88 64.1611 2263.99 64.2307 2264.07 64.3182C2264.16 64.4056 2264.23 64.5092 2264.27 64.623V64.623C2264.36 64.8535 2264.36 65.1086 2264.26 65.3353C2264.16 65.5621 2263.98 65.7433 2263.76 65.8414V65.8414C2262.71 66.382 2261.8 67.1602 2261.1 68.1142C2260.4 69.0683 2259.94 70.1718 2259.74 71.3371C2259.69 71.4649 2259.61 71.5802 2259.51 71.6751C2259.41 71.77 2259.3 71.8423 2259.16 71.887V71.887Z" fill="#484D58"/>
<path d="M2292.92 38.2177L2293.73 46.9156C2295.31 47.2902 2296.69 48.2454 2297.6 49.5914C2298.5 50.9374 2298.87 52.5758 2298.63 54.181C2297.44 61.9027 2303.89 72.0776 2310.31 75.2986C2310.31 75.2986 2309.81 72.1736 2312.58 72.34C2315.34 72.5064 2319.97 86.8095 2319.97 86.8095C2319.97 86.8095 2326.37 83.8523 2327.04 66.0286C2327.66 49.5433 2319.84 41.4792 2315.32 36.1416L2292.92 38.2177Z" fill="#484D58"/>
<path d="M2277.75 94.8134C2279.09 96.8314 2280.27 98.9436 2281.29 101.133C2281.7 101.023 2282.12 100.912 2282.52 100.78C2288.07 99.1324 2290.1 96.5468 2290.67 94.17C2290.92 93.0034 2290.89 91.7932 2290.58 90.6406C2290.43 89.9809 2290.18 89.3459 2289.85 88.7542C2286.88 91.2866 2283.39 93.1511 2279.64 94.2216C2278.49 94.6196 2277.75 94.8134 2277.75 94.8134Z" fill="#484D58"/>
<path d="M2279.64 94.224L2280.73 96.0672C2285.95 94.5106 2289.42 92.7135 2290.58 90.6479C2290.43 89.9881 2290.18 89.3532 2289.85 88.7615C2286.88 91.2923 2283.39 93.155 2279.64 94.224V94.224Z" fill="white"/>
<path d="M2282.52 100.78C2288.07 99.1324 2290.1 96.5468 2290.67 94.17C2288.57 94.8329 2286.61 95.8629 2284.87 97.2123C2283.73 98.1273 2282.91 99.3748 2282.52 100.78V100.78Z" fill="#ED827E"/>
<path d="M2293.73 46.9154C2287.13 46.1996 2271.51 48.9997 2260.94 56.1589C2260.94 56.1589 2255.74 56.332 2251.76 45.3237C2247.78 34.3154 2254.7 27.4596 2257.17 28.6157C2259.64 29.7717 2254.74 32.4252 2254.9 35.6232C2254.9 35.6232 2267.62 28.3918 2268.51 20.7185C2269.39 13.0451 2274.42 10.1145 2277.03 12.7342C2279.64 15.354 2271.99 24.1269 2271.99 24.1269C2271.99 24.1269 2281.71 23.3291 2285.96 15.3587C2290.21 7.38822 2298.31 2.87057 2300.83 5.57304C2303.34 8.2755 2292.78 12.0076 2290.26 16.0872C2290.26 16.0872 2306 7.89712 2313.64 11.8215C2321.29 15.7458 2320.08 18.0205 2314.98 17.4815C2311.17 17.4818 2307.44 18.6195 2304.28 20.7489C2304.28 20.7489 2316.89 19.2687 2322.24 23.9828C2327.58 28.6968 2332.7 25.0775 2334.33 27.767C2335.96 30.4564 2326 32.5556 2326 32.5556C2326 32.5556 2332.17 36.5759 2338.02 33.9523C2343.88 31.3287 2347.01 40.4123 2332.33 39.3352C2332.33 39.3352 2333.84 48.9234 2339.22 49.6139C2344.61 50.3044 2342.91 54.693 2339.09 54.3482C2335.28 54.0035 2331.24 49.5194 2331.24 49.5194C2331.24 49.5194 2338.85 59.626 2336.59 63.7713C2334.32 67.9166 2331.04 59.235 2331.04 59.235C2331.04 59.235 2335.73 72.8129 2333.72 73.7851C2331.71 74.7572 2328.56 69.8359 2328.56 69.8359C2328.56 69.8359 2332.7 79.2351 2328.89 81.3911C2325.86 82.8022 2322.57 83.5765 2319.23 83.6659C2319.23 83.6659 2305.4 48.1812 2293.73 46.9154Z" fill="#484D58"/>
<path d="M2325.68 71.5509C2324.72 76.4146 2321.88 80.7002 2317.76 83.4686C2312.29 87.0928 2307.54 82.6805 2307.36 76.459C2307.25 70.9292 2309.89 62.2132 2316.22 61.1407C2322.56 60.0681 2326.78 65.5638 2325.68 71.5509Z" fill="#FFDCD0"/>
<path d="M2383.12 58.3074C2383.12 58.3074 2384.42 89.6732 2423.51 94.2326L2469.15 63.7083L2453.16 29.1764L2383.12 58.3074Z" fill="#F1F1F1"/>
<path opacity="0.5" d="M2383.12 58.3074C2383.12 58.3074 2384.42 89.6732 2423.51 94.2326L2469.15 63.7083L2453.16 29.1764L2383.12 58.3074Z" fill="url(#paint27_linear)"/>
<path d="M1359.21 893.943C1441.98 893.943 1509.07 826.847 1509.07 744.081C1509.07 661.315 1441.98 594.219 1359.21 594.219C1276.44 594.219 1209.35 661.315 1209.35 744.081C1209.35 826.847 1276.44 893.943 1359.21 893.943Z" fill="url(#paint28_linear)"/>
<path d="M1230.74 821.267C1286.69 741.306 1356.22 671.564 1436.01 615.39C1479.76 641.56 1509.07 689.389 1509.07 744.081C1509.07 826.846 1441.98 893.942 1359.21 893.942C1304.68 893.942 1256.96 864.809 1230.74 821.267V821.267Z" fill="url(#paint29_linear)"/>
<path d="M2007.72 277.611C2032.89 277.611 2053.3 257.205 2053.3 232.033C2053.3 206.862 2032.89 186.456 2007.72 186.456C1982.55 186.456 1962.14 206.862 1962.14 232.033C1962.14 257.205 1982.55 277.611 2007.72 277.611Z" fill="url(#paint30_linear)"/>
<path d="M892.2 399.051C907.598 399.051 920.081 386.568 920.081 371.169C920.081 355.771 907.598 343.288 892.2 343.288C876.801 343.288 864.319 355.771 864.319 371.169C864.319 386.568 876.801 399.051 892.2 399.051Z" fill="url(#paint31_linear)"/>
<path d="M281.792 626.79C281.806 555.396 309.041 486.692 357.95 434.67C406.859 382.649 473.763 351.223 545.037 346.792C616.311 342.361 686.594 365.26 741.572 410.823C796.55 456.387 832.088 521.188 840.948 592.031C847.867 647.461 838.078 703.694 812.834 753.527C784.358 809.847 737.719 854.923 680.454 881.472C623.189 908.021 558.644 914.492 497.247 899.839C435.85 885.186 381.187 850.265 342.092 800.719C302.997 751.174 281.753 689.897 281.792 626.79V626.79Z" fill="url(#paint32_linear)"/>
<path d="M305.87 740.685C441.522 810.289 488.034 781.098 632.967 729.454C715.8 699.908 776.261 725.864 812.833 753.529C788.846 800.887 751.916 840.473 706.33 867.691C660.744 894.909 608.371 908.643 555.291 907.298C502.211 905.953 450.601 889.585 406.452 860.094C362.304 830.602 327.427 789.197 305.87 740.685V740.685Z" fill="url(#paint33_linear)"/>
<path d="M292.575 549.287C310.449 487.154 349.23 433.095 402.365 396.246C455.5 359.397 519.73 342.016 584.202 347.042C648.673 352.068 709.433 379.191 756.212 423.829C802.992 468.466 832.924 527.881 840.949 592.033C816.268 568.761 787.063 550.814 755.149 539.308C723.234 527.802 689.293 522.984 655.437 525.152C507.919 533.824 394.543 638.022 292.575 549.287Z" fill="url(#paint34_linear)"/>
<path d="M1906.38 574.992C1906.39 506.727 1932.43 441.034 1979.2 391.293C2025.97 341.552 2089.94 311.503 2158.09 307.267C2226.24 303.03 2293.44 324.925 2346.01 368.491C2398.58 412.058 2432.56 474.019 2441.03 541.757C2447.64 594.757 2438.28 648.525 2414.15 696.174C2386.92 750.026 2342.32 793.126 2287.57 818.511C2232.81 843.896 2171.1 850.084 2112.39 836.073C2053.69 822.062 2001.42 788.672 1964.04 741.298C1926.66 693.924 1906.34 635.333 1906.38 574.992V574.992Z" fill="url(#paint35_linear)"/>
<path d="M1929.4 683.895C2059.11 750.448 2103.58 722.537 2242.16 673.157C2321.37 644.905 2379.18 669.724 2414.14 696.176C2391.21 741.459 2355.9 779.309 2312.31 805.334C2268.72 831.359 2218.64 844.491 2167.89 843.205C2117.14 841.92 2067.79 826.269 2025.58 798.07C1983.36 769.871 1950.01 730.281 1929.4 683.895V683.895Z" fill="url(#paint36_linear)"/>
<path d="M1916.69 500.886C1933.78 441.477 1970.86 389.787 2021.67 354.553C2072.47 319.319 2133.89 302.701 2195.54 307.506C2257.18 312.311 2315.28 338.246 2360.01 380.927C2404.74 423.608 2433.36 480.419 2441.03 541.758C2417.43 519.507 2389.5 502.346 2358.99 491.345C2328.47 480.343 2296.02 475.736 2263.65 477.809C2122.6 486.101 2014.19 585.732 1916.69 500.886Z" fill="url(#paint37_linear)"/>
<circle cx="1214.58" cy="519.288" r="5.22773" fill="#F4F4F4"/>
<circle cx="752.794" cy="313.664" r="5.22773" fill="#F4F4F4"/>
<circle cx="1934.26" cy="341.546" r="5.22773" fill="#F4F4F4"/>
<circle cx="1021.15" cy="735.368" r="10.4555" fill="#F4F4F4"/>
<circle cx="10.4555" cy="486.179" r="10.4555" fill="#F4F4F4"/>
<circle cx="1779.17" cy="719.685" r="10.4555" fill="#F4F4F4"/>
<defs>
<linearGradient id="paint0_linear" x1="524.368" y1="123.98" x2="395.901" y2="145.655" gradientUnits="userSpaceOnUse">
<stop offset="0.005" stop-color="#FEA7AF"/>
<stop offset="0.973" stop-color="#EA47AC"/>
</linearGradient>
<linearGradient id="paint1_linear" x1="151.727" y1="182.393" x2="149.536" y2="190.584" gradientUnits="userSpaceOnUse">
<stop stop-color="#6C67F2"/>
<stop offset="1" stop-color="#D7C9F9"/>
</linearGradient>
<linearGradient id="paint2_linear" x1="295.236" y1="187.428" x2="276.546" y2="300.625" gradientUnits="userSpaceOnUse">
<stop stop-color="#6C67F2"/>
<stop offset="1" stop-color="#D7C9F9"/>
</linearGradient>
<linearGradient id="paint3_linear" x1="185.365" y1="189.73" x2="184.118" y2="203.29" gradientUnits="userSpaceOnUse">
<stop stop-color="#6C67F2"/>
<stop offset="1" stop-color="#D7C9F9"/>
</linearGradient>
<linearGradient id="paint4_linear" x1="85.4919" y1="256.325" x2="82.7322" y2="265.044" gradientUnits="userSpaceOnUse">
<stop stop-color="#6C67F2"/>
<stop offset="1" stop-color="#D7C9F9"/>
</linearGradient>
<linearGradient id="paint5_linear" x1="284.857" y1="213.068" x2="286.033" y2="290.593" gradientUnits="userSpaceOnUse">
<stop stop-color="#6C67F2"/>
<stop offset="1" stop-color="#D7C9F9"/>
</linearGradient>
<linearGradient id="paint6_linear" x1="118.637" y1="244.054" x2="110.655" y2="263.614" gradientUnits="userSpaceOnUse">
<stop stop-color="#6C67F2"/>
<stop offset="1" stop-color="#D7C9F9"/>
</linearGradient>
<linearGradient id="paint7_linear" x1="378.671" y1="208.657" x2="296.196" y2="222.573" gradientUnits="userSpaceOnUse">
<stop offset="0.005" stop-color="#FEA7AF"/>
<stop offset="0.973" stop-color="#EA47AC"/>
</linearGradient>
<linearGradient id="paint8_linear" x1="412.831" y1="181.336" x2="307.586" y2="199.093" gradientUnits="userSpaceOnUse">
<stop offset="0.005" stop-color="#FEA7AF"/>
<stop offset="0.973" stop-color="#EA47AC"/>
</linearGradient>
<linearGradient id="paint9_linear" x1="322.699" y1="165.153" x2="237.623" y2="179.508" gradientUnits="userSpaceOnUse">
<stop offset="0.005" stop-color="#FEA7AF"/>
<stop offset="0.973" stop-color="#EA47AC"/>
</linearGradient>
<linearGradient id="paint10_linear" x1="1551.25" y1="509.418" x2="1557.32" y2="519.304" gradientUnits="userSpaceOnUse">
<stop stop-color="#4A7AF9"/>
<stop offset="1" stop-color="#B4E1EF"/>
</linearGradient>
<linearGradient id="paint11_linear" x1="1325.33" y1="385.412" x2="1367.63" y2="533.951" gradientUnits="userSpaceOnUse">
<stop stop-color="#4A7AF9"/>
<stop offset="1" stop-color="#B4E1EF"/>
</linearGradient>
<linearGradient id="paint12_linear" x1="1519.38" y1="484.198" x2="1535.26" y2="495.382" gradientUnits="userSpaceOnUse">
<stop stop-color="#4A7AF9"/>
<stop offset="1" stop-color="#B4E1EF"/>
</linearGradient>
<linearGradient id="paint13_linear" x1="1619.85" y1="396.874" x2="1624.84" y2="406.599" gradientUnits="userSpaceOnUse">
<stop stop-color="#4A7AF9"/>
<stop offset="1" stop-color="#B4E1EF"/>
</linearGradient>
<linearGradient id="paint14_linear" x1="1214.84" y1="341.367" x2="1246.68" y2="379.163" gradientUnits="userSpaceOnUse">
<stop stop-color="#4A7AF9"/>
<stop offset="1" stop-color="#B4E1EF"/>
</linearGradient>
<linearGradient id="paint15_linear" x1="1376.43" y1="385.523" x2="1390.45" y2="477.053" gradientUnits="userSpaceOnUse">
<stop stop-color="#4A7AF9"/>
<stop offset="1" stop-color="#B4E1EF"/>
</linearGradient>
<linearGradient id="paint16_linear" x1="1578.37" y1="388.976" x2="1591.66" y2="410.426" gradientUnits="userSpaceOnUse">
<stop stop-color="#4A7AF9"/>
<stop offset="1" stop-color="#B4E1EF"/>
</linearGradient>
<linearGradient id="paint17_linear" x1="1293.37" y1="376.841" x2="1314.4" y2="438.691" gradientUnits="userSpaceOnUse">
<stop stop-color="#4A7AF9"/>
<stop offset="1" stop-color="#B4E1EF"/>
</linearGradient>
<linearGradient id="paint18_linear" x1="1255.02" y1="337.263" x2="1296.9" y2="432.95" gradientUnits="userSpaceOnUse">
<stop stop-color="#4A7AF9"/>
<stop offset="1" stop-color="#B4E1EF"/>
</linearGradient>
<linearGradient id="paint19_linear" x1="1308.1" y1="331.593" x2="1309.55" y2="337.385" gradientUnits="userSpaceOnUse">
<stop stop-color="#4A7AF9"/>
<stop offset="1" stop-color="#B4E1EF"/>
</linearGradient>
<linearGradient id="paint20_linear" x1="1339.18" y1="332.795" x2="1354.57" y2="373.064" gradientUnits="userSpaceOnUse">
<stop stop-color="#4A7AF9"/>
<stop offset="1" stop-color="#B4E1EF"/>
</linearGradient>
<linearGradient id="paint21_linear" x1="2262.43" y1="90.8295" x2="2292.91" y2="117.967" gradientUnits="userSpaceOnUse">
<stop stop-color="#5FA8ED"/>
<stop offset="1" stop-color="#7ED5B7"/>
</linearGradient>
<linearGradient id="paint22_linear" x1="2394.99" y1="277.502" x2="2568.05" y2="256.888" gradientUnits="userSpaceOnUse">
<stop offset="0.005" stop-color="#FEA7AF"/>
<stop offset="0.973" stop-color="#EA47AC"/>
</linearGradient>
<linearGradient id="paint23_linear" x1="2396.64" y1="230.648" x2="2680.48" y2="196.835" gradientUnits="userSpaceOnUse">
<stop offset="0.005" stop-color="#FEA7AF"/>
<stop offset="0.973" stop-color="#EA47AC"/>
</linearGradient>
<linearGradient id="paint24_linear" x1="2283.89" y1="110.711" x2="2324.41" y2="167.996" gradientUnits="userSpaceOnUse">
<stop stop-color="#5FA8ED"/>
<stop offset="1" stop-color="#7ED5B7"/>
</linearGradient>
<linearGradient id="paint25_linear" x1="2380.72" y1="67.0484" x2="2400.44" y2="136.811" gradientUnits="userSpaceOnUse">
<stop stop-color="#5FA8ED"/>
<stop offset="1" stop-color="#7ED5B7"/>
</linearGradient>
<linearGradient id="paint26_linear" x1="2290.35" y1="75.9752" x2="2307.6" y2="123.968" gradientUnits="userSpaceOnUse">
<stop stop-color="#5FA8ED"/>
<stop offset="1" stop-color="#7ED5B7"/>
</linearGradient>
<linearGradient id="paint27_linear" x1="2405.55" y1="43.5044" x2="2435.87" y2="99.4457" gradientUnits="userSpaceOnUse">
<stop stop-color="#9FCBF4"/>
<stop offset="1" stop-color="#B1E5D6"/>
</linearGradient>
<linearGradient id="paint28_linear" x1="1294.34" y1="636.388" x2="1436.41" y2="893.943" gradientUnits="userSpaceOnUse">
<stop stop-color="#6C67F2"/>
<stop offset="1" stop-color="#D7C9F9"/>
</linearGradient>
<linearGradient id="paint29_linear" x1="1309.66" y1="654.58" x2="1441.76" y2="893.854" gradientUnits="userSpaceOnUse">
<stop stop-color="#6C67F2"/>
<stop offset="1" stop-color="#D7C9F9"/>
</linearGradient>
<linearGradient id="paint30_linear" x1="1962.14" y1="232.033" x2="2053.3" y2="232.033" gradientUnits="userSpaceOnUse">
<stop offset="0.005" stop-color="#FEA7AF"/>
<stop offset="0.973" stop-color="#EA47AC"/>
</linearGradient>
<linearGradient id="paint31_linear" x1="880.13" y1="351.133" x2="906.563" y2="399.051" gradientUnits="userSpaceOnUse">
<stop stop-color="#F29C96"/>
<stop offset="0.942708" stop-color="#F8D2BF"/>
</linearGradient>
<linearGradient id="paint32_linear" x1="683.947" y1="828.542" x2="417.913" y2="346.226" gradientUnits="userSpaceOnUse">
<stop stop-color="#5FA8ED"/>
<stop offset="1" stop-color="#7ED5B7"/>
</linearGradient>
<linearGradient id="paint33_linear" x1="669.083" y1="880.514" x2="626.428" y2="675.29" gradientUnits="userSpaceOnUse">
<stop stop-color="#5FA8ED"/>
<stop offset="1" stop-color="#7ED5B7"/>
</linearGradient>
<linearGradient id="paint34_linear" x1="685.458" y1="557.445" x2="621.244" y2="297.788" gradientUnits="userSpaceOnUse">
<stop stop-color="#5FA8ED"/>
<stop offset="1" stop-color="#7ED5B7"/>
</linearGradient>
<linearGradient id="paint35_linear" x1="2290.91" y1="767.901" x2="2036.53" y2="306.726" gradientUnits="userSpaceOnUse">
<stop stop-color="#4A7AF9"/>
<stop offset="1" stop-color="#B4E1EF"/>
</linearGradient>
<linearGradient id="paint36_linear" x1="2276.7" y1="817.595" x2="2235.91" y2="621.367" gradientUnits="userSpaceOnUse">
<stop stop-color="#4A7AF9"/>
<stop offset="1" stop-color="#B4E1EF"/>
</linearGradient>
<linearGradient id="paint37_linear" x1="2292.35" y1="508.686" x2="2230.95" y2="260.411" gradientUnits="userSpaceOnUse">
<stop stop-color="#4A7AF9"/>
<stop offset="1" stop-color="#B4E1EF"/>
</linearGradient>
</defs>
</svg>
