<svg width="528" height="513" viewBox="0 0 528 513" fill="none" xmlns="http://www.w3.org/2000/svg">
<path d="M286.564 50.2718C293.194 45.494 299.78 40.7334 299.78 40.7334C299.78 40.7334 303.884 32.9519 306.085 30.7873C308.286 28.6227 315.704 33.5834 316.361 35.2773C317.017 36.9712 307.411 46.5036 307.411 46.5036L304.277 47.165C304.277 47.165 296.561 53.9963 289.563 60.1963L286.564 50.2718Z" fill="#FFE3DF"/>
<path d="M229.506 74.2607C229.506 74.2607 247.933 70.7597 256.125 66.9542C264.316 63.1486 296.036 42.4811 296.036 42.4811L299.524 52.9033C299.524 52.9033 270.845 78.4548 263.512 81.7874C256.18 85.12 230.39 92.5363 230.39 92.5363L229.506 74.2607Z" fill="url(#paint0_linear)"/>
<path opacity="0.1" d="M230.398 92.535C230.398 92.535 239.955 89.7821 249.087 86.8729C254.943 85.001 260.633 83.0716 263.508 81.774C270.845 78.4548 299.52 52.904 299.52 52.904L296.036 42.4728C296.036 42.4728 264.314 63.1492 256.132 66.953C247.95 70.7569 229.509 74.2531 229.509 74.2531L230.049 85.2241L230.398 92.535Z" fill="white"/>
<path opacity="0.2" d="M230.397 92.5353C230.397 92.5353 239.954 89.7824 249.085 86.8732C244.552 85.1861 237.068 83.2415 230.047 85.2244L230.397 92.5353Z" fill="black"/>
<path d="M90.5652 93.0034L97.072 88.4202L104.524 96.7281L111.345 104.354L104.507 111.052L97.1215 101.497L90.5652 93.0034Z" fill="#FFE3DF"/>
<path d="M98.7584 87.8549C99.2476 88.5835 90.0379 94.23 90.0379 94.23C90.0379 94.23 80.7314 92.5358 74.5908 95.0059C68.4502 97.476 69.1668 92.2433 75.0544 88.0967L89.6157 77.838C93.793 74.8923 93.6954 80.2958 98.7584 87.8549Z" fill="#585979"/>
<path d="M83.8122 95.242C83.5219 95.4156 83.2999 95.6835 83.1833 96.001C83.1385 96.2066 83.1574 96.421 83.2376 96.6155C83.3178 96.8101 83.4555 96.9756 83.6322 97.0899C83.754 97.1934 83.8961 97.2703 84.0493 97.3159C84.2025 97.3615 84.3636 97.3746 84.5221 97.3545C85.3274 97.169 86.0646 96.7617 86.6502 96.1787C86.2041 97.0665 85.9039 97.9739 86.2032 98.4551C86.3986 98.7685 86.7695 98.8798 87.3057 98.7879C87.5433 98.7519 87.7703 98.6647 87.9709 98.5324C88.1716 98.4001 88.3411 98.2258 88.4679 98.0217C89.3092 96.688 88.6105 94.1273 88.574 93.9952C88.564 93.9572 88.5459 93.9218 88.5209 93.8916C88.5024 93.8676 88.4796 93.8473 88.4537 93.8316C88.4273 93.8151 88.3983 93.8032 88.3679 93.7962V93.7962C88.3313 93.787 88.2932 93.7857 88.2561 93.7923C86.7019 94.0139 85.1981 94.5044 83.8122 95.242V95.242ZM85.6458 96.2498C85.3039 96.5224 84.9005 96.7074 84.4709 96.7887C84.3878 96.8013 84.3031 96.7962 84.2221 96.7737C84.1412 96.7513 84.0659 96.712 84.0013 96.6584C83.6684 96.3753 83.7157 96.2077 83.7303 96.151C83.9086 95.5179 85.8628 94.866 87.5488 94.5003C86.9752 95.1463 86.3376 95.7325 85.6458 96.2498ZM87.682 98.0445C87.5408 98.1425 87.3791 98.2069 87.2091 98.2326C87.0483 98.2597 86.7667 98.2887 86.6867 98.1611C86.4303 97.7482 87.2071 96.1759 88.1628 94.7602C88.4259 95.7393 88.3639 96.7773 87.9862 97.718C87.9069 97.8443 87.8032 97.9534 87.6811 98.0389L87.682 98.0445Z" fill="url(#paint1_linear)"/>
<path opacity="0.2" d="M96.98 101.301L104.396 96.5486L111.283 104.27L104.475 111.013L96.98 101.301Z" fill="black"/>
<path d="M98.1797 104.95C98.1797 104.95 104.162 112.523 112.002 121.649C118.743 129.672 125.915 137.323 133.488 144.566C133.639 144.698 133.775 144.832 133.909 144.952C136.433 147.358 139.188 149.51 142.135 151.375C148.805 155.254 158.608 154.298 168.028 151.24C177.755 148.06 187.059 142.627 192.055 137.935C196.181 134.156 199.782 129.843 202.764 125.109L192.549 107.232C192.549 107.232 175.891 114.875 149.079 131.359C148.862 131.509 148.629 131.648 148.395 131.788L132.206 118.126L109.336 98.8342L98.1797 104.95Z" fill="url(#paint2_linear)"/>
<path d="M110.754 99.2292L97.9873 106.579L96.3616 104.243L108.48 97.4946L110.754 99.2292Z" fill="url(#paint3_linear)"/>
<path opacity="0.2" d="M133.91 144.952C136.433 147.358 139.189 149.51 142.135 151.375C148.805 155.254 158.608 154.298 168.028 151.24C172.131 146.596 175.543 141.385 178.16 135.768L189.649 131.996L177.562 131.115L133.91 144.952Z" fill="black"/>
<path opacity="0.2" d="M110.754 99.2292L97.9873 106.579L96.3616 104.243L108.48 97.4946L110.754 99.2292Z" fill="black"/>
<path opacity="0.2" d="M112.002 121.649C118.743 129.672 125.915 137.323 133.488 144.566L150.515 133.283L149.078 131.359C148.862 131.509 148.628 131.648 148.395 131.788L132.206 118.126C127.183 118.859 119.745 120.057 112.002 121.649Z" fill="black"/>
<path d="M50.0374 134.544L52.8154 127.09L63.6589 129.733L73.6014 132.172L71.7447 141.563L60.2509 137.854L50.0374 134.544Z" fill="#FFE3DF"/>
<path d="M53.8918 125.664C54.708 125.99 50.301 135.854 50.301 135.854C50.301 135.854 41.6652 139.714 37.9961 145.224C34.3271 150.734 31.9619 146.01 34.474 139.261C36.986 132.512 38.9042 127.363 40.688 122.568C42.4719 117.772 45.437 122.293 53.8918 125.664Z" fill="#585979"/>
<path d="M45.7313 140.207C45.5905 140.514 45.5589 140.861 45.6417 141.189C45.7289 141.443 45.9724 141.763 46.6272 141.833C46.7866 141.849 46.9475 141.831 47.0995 141.781C47.2516 141.731 47.3915 141.649 47.5103 141.542C48.0702 140.931 48.4479 140.176 48.6009 139.362C48.7341 140.346 48.9986 141.264 49.517 141.488C49.7132 141.553 49.9249 141.554 50.1218 141.492C50.3188 141.429 50.4911 141.307 50.6144 141.141C50.7899 140.976 50.9275 140.775 51.0176 140.551C51.1076 140.328 51.148 140.087 51.1359 139.847C51.0768 138.272 49.0535 136.553 48.9489 136.465C48.9192 136.44 48.8844 136.421 48.8468 136.41V136.41C48.8178 136.4 48.7871 136.397 48.7567 136.399C48.7256 136.4 48.6947 136.405 48.6652 136.415C48.6302 136.429 48.5983 136.45 48.5715 136.476C47.4148 137.545 46.4536 138.808 45.7313 140.207V140.207ZM47.813 139.998C47.6838 140.417 47.4546 140.798 47.145 141.109C47.0832 141.166 47.0101 141.209 46.9305 141.236C46.8509 141.264 46.7665 141.274 46.6827 141.267C46.2473 141.22 46.1938 141.056 46.1747 141.002C45.96 140.379 47.2066 138.736 48.3905 137.482C48.2836 138.339 48.0904 139.184 47.8137 140.003L47.813 139.998ZM50.5049 140.323C50.4431 140.483 50.3456 140.628 50.2198 140.745C50.0969 140.862 49.8865 141.043 49.748 140.982C49.303 140.786 49.0557 139.05 49.044 137.342C49.8138 138.001 50.3493 138.893 50.5703 139.882C50.5782 140.033 50.5562 140.184 50.5056 140.327L50.5049 140.323Z" fill="url(#paint4_linear)"/>
<path opacity="0.2" d="M60.0188 137.764L63.451 129.651L73.4946 132.123L71.6895 141.532L60.0188 137.764Z" fill="black"/>
<path d="M191.88 103.31C191.88 103.31 165.583 98.2463 119.661 133.847L68.8185 128.741L63.0681 140.097C63.0681 140.097 109.952 154.69 125.578 153.549C141.205 152.408 177.062 132.703 177.062 132.703L206.312 119.679L191.88 103.31Z" fill="url(#paint5_linear)"/>
<path d="M70.9512 127.754L68.0405 128.245L61.6112 140.503L64.8058 141.694L70.9512 127.754Z" fill="url(#paint6_linear)"/>
<path opacity="0.2" d="M70.9512 127.754L68.0405 128.245L61.6112 140.503L64.8058 141.694L70.9512 127.754Z" fill="black"/>
<path d="M167.744 104.503C167.744 104.503 176.322 127.399 194.987 127.974C197.941 128.103 200.893 127.674 203.687 126.708C206.341 125.724 208.775 124.227 210.849 122.303C212.924 120.378 214.6 118.064 215.781 115.492C216.521 114.027 217.098 112.485 217.499 110.894L189.063 102.039L186.719 101.302C183.213 101.175 179.702 101.312 176.216 101.713C172.824 102.142 169.491 102.967 167.744 104.503Z" fill="url(#paint7_linear)"/>
<path opacity="0.2" d="M167.744 104.503C167.744 104.503 176.322 127.399 194.987 127.974C197.941 128.103 200.893 127.674 203.687 126.708C206.341 125.724 208.775 124.227 210.849 122.303C212.924 120.378 214.6 118.064 215.781 115.492C216.521 114.027 217.098 112.485 217.499 110.894L189.063 102.039L186.719 101.302C183.213 101.175 179.702 101.312 176.216 101.713C172.824 102.142 169.491 102.967 167.744 104.503Z" fill="white"/>
<path opacity="0.2" d="M186.383 117.086C192.522 121.778 198.063 125.056 203.688 126.711C206.341 125.727 208.775 124.23 210.85 122.305C212.925 120.381 214.6 118.067 215.781 115.494C207.126 110.525 198.206 106.034 189.059 102.042L186.715 101.304C183.209 101.177 179.698 101.314 176.212 101.715C175.577 105.306 177.835 110.557 186.383 117.086Z" fill="black"/>
<path d="M233.46 73.6293C216.82 71.8851 200.005 74.1509 184.42 80.2371C184.42 80.2371 178.036 96.473 177.24 108.567C177.24 108.567 194.653 126.716 213.584 122.891C232.515 119.067 233.46 73.6293 233.46 73.6293Z" fill="url(#paint8_linear)"/>
<path opacity="0.2" d="M177.235 108.561C177.235 108.561 194.652 126.706 213.579 122.885C232.507 119.064 233.462 73.629 233.462 73.629C216.821 71.8857 200.003 74.1513 184.416 80.2363C181.438 87.9766 179.199 95.9816 177.73 104.144C177.5 105.651 177.322 107.135 177.235 108.561Z" fill="white"/>
<path opacity="0.2" d="M177.73 104.144C185.29 98.6776 186.833 84.6752 184.416 80.2363C181.438 87.9766 179.199 95.9816 177.73 104.144V104.144Z" fill="black"/>
<path d="M232.202 52.4588C232.202 52.4588 229.343 26.6976 208.008 36.6366C181.226 49.1138 203.579 80.0066 216.643 73.2022C229.708 66.3978 232.202 52.4588 232.202 52.4588Z" fill="#585979"/>
<path d="M199.432 78.9302C199.432 78.9302 206.902 92.227 215.542 89.8269C217.83 89.1831 219.908 87.9452 221.563 86.2388C223.218 84.5325 224.391 82.4185 224.965 80.1117C225.092 79.6641 225.191 79.2089 225.261 78.7488C225.261 78.7488 220.558 78.1711 222.737 73.7691L210.284 67.0763C210.495 68.2563 210.636 69.4477 210.708 70.6442C210.805 72.776 210.641 75.2013 209.441 76.0125C207.17 77.5517 199.432 78.9302 199.432 78.9302Z" fill="#FFE3DF"/>
<path opacity="0.2" d="M210.707 70.6428C212.448 75.5166 216.519 82.7413 224.965 80.1103C225.092 79.6627 225.191 79.2076 225.261 78.7475C225.261 78.7475 220.558 78.1697 222.737 73.7678L210.284 67.075C210.494 68.255 210.636 69.4463 210.707 70.6428V70.6428Z" fill="black"/>
<path d="M215.272 41.8657C225.006 39.4464 229.439 43.8774 232.642 53.7331C236.65 66.0461 236.084 75.6441 223.247 75.9882C205.818 76.4656 199.106 45.8847 215.272 41.8657Z" fill="#FFE3DF"/>
<path d="M226.214 54.7521C227.356 56.0134 228.646 57.1326 230.055 58.0855C229.87 58.5582 229.558 58.9707 229.154 59.2774C228.749 59.5841 228.268 59.7732 227.763 59.8237L226.214 54.7521Z" fill="#D4827D"/>
<path d="M220.058 55.4386C220.276 56.2329 220.023 56.9955 219.49 57.141C218.957 57.2865 218.354 56.7625 218.137 55.9638C217.919 55.1652 218.172 54.4069 218.705 54.2614C219.238 54.1159 219.841 54.6427 220.058 55.4386Z" fill="#585979"/>
<path d="M218.495 54.3596L220.038 53.2083C220.038 53.2083 219.571 54.8994 218.495 54.3596Z" fill="#585979"/>
<path d="M229.895 52.5631C230.112 53.3589 229.858 54.1202 229.327 54.2655C228.795 54.4107 228.191 53.8869 227.972 53.0885C227.753 52.29 228.009 51.5313 228.54 51.3861C229.072 51.2408 229.678 51.7743 229.895 52.5631Z" fill="#585979"/>
<path d="M228.331 51.4912L229.875 50.3398C229.875 50.3398 229.413 52.03 228.331 51.4912Z" fill="#585979"/>
<path d="M218.289 48.7408C217.498 48.8386 216.739 49.1166 216.071 49.5534C215.403 49.9903 214.845 50.5744 214.438 51.2608" stroke="#585979" stroke-width="0.725" stroke-linecap="round" stroke-linejoin="round"/>
<path d="M225.263 46.5705C225.886 46.2368 226.577 46.0486 227.283 46.02C227.989 45.9915 228.693 46.1234 229.341 46.4057" stroke="#585979" stroke-width="0.725" stroke-linecap="round" stroke-linejoin="round"/>
<path d="M208.713 60.9166C208.713 60.9166 211.276 51.7886 209.051 45.7848C209.051 45.7848 226.382 33.1088 232.201 52.4518C232.201 52.4518 229.759 34.5974 212.935 38.3698C196.132 42.1371 200.266 66.8907 210.722 72.0359C210.722 72.0359 207.141 66.6188 208.713 60.9166Z" fill="#585979"/>
<path d="M210.814 62.5765C210.439 61.4737 209.643 60.5641 208.6 60.0471C207.556 59.5301 206.35 59.4477 205.246 59.8181C202.312 60.8962 202.414 67.4464 210.287 67.0701C211.417 67.0163 211.762 65.8135 210.814 62.5765Z" fill="#FFE3DF"/>
<path d="M229.606 63.4984C229.38 64.7042 229.242 65.9247 229.193 67.1504C228.978 67.1795 228.765 67.2097 228.55 67.2275C225.633 67.5515 224.172 66.7373 223.439 65.7377C223.091 65.2424 222.867 64.6705 222.786 64.0703C222.728 63.7321 222.718 63.3873 222.756 63.0462C224.645 63.6459 226.641 63.8327 228.608 63.594C229.223 63.5544 229.606 63.4984 229.606 63.4984Z" fill="#585979"/>
<path d="M228.61 63.5937L228.46 64.6667C225.712 64.9664 223.738 64.8077 222.786 64.0703C222.728 63.732 222.718 63.3873 222.755 63.0462C224.645 63.646 226.642 63.8327 228.61 63.5937Z" fill="white"/>
<path d="M228.55 67.2274C225.633 67.5515 224.172 66.7373 223.439 65.7377C224.55 65.636 225.671 65.7317 226.749 66.0204C227.461 66.2243 228.091 66.6465 228.55 67.2274V67.2274Z" fill="#DE5753"/>
<path d="M198.686 46.868C198.686 46.868 195.989 39.2403 186.76 40.7976C177.53 42.3549 177.196 47.6257 169.525 49.5087C161.854 51.3917 156.558 46.7387 155.848 42.5348C155.848 42.5348 153.72 44.9622 155.709 48.9503C154.582 47.9079 153.875 46.4896 153.72 44.9622C153.72 44.9622 150.945 50.7976 157.632 58.1226C164.319 65.4477 176.618 63.7403 181.103 60.6015C192.513 52.6193 198.472 56.177 198.472 56.177L198.686 46.868Z" fill="#585979"/>
<path d="M197.441 55.0666C197.441 55.0666 192.524 52.1144 183.94 59.1663C175.357 66.2182 164.213 68.1354 160.046 62.9454" stroke="#585979" stroke-width="0.5" stroke-linecap="round" stroke-linejoin="round"/>
<path d="M160.126 75.6091C167.828 72.884 175.491 70.1656 175.491 70.1656C175.491 70.1656 181.613 63.8512 184.34 62.4003C187.068 60.9494 192.786 67.7864 192.939 69.5981C193.092 71.4097 181.194 77.852 181.194 77.852L178.001 77.6053C178.001 77.6053 168.675 81.9927 160.217 85.9829L160.126 75.6091Z" fill="#FFE3DF"/>
<path d="M166.917 72.4674L169.865 83.2572L184.418 80.2316C184.418 80.2316 186.563 95.9666 178.218 101.34C178.218 101.34 140.247 101.593 137.033 95.0704C133.82 88.5477 140.318 80.2754 166.917 72.4674Z" fill="url(#paint9_linear)"/>
<path opacity="0.1" d="M137.042 95.0715C140.251 101.586 178.213 101.339 178.213 101.339C186.558 95.9685 184.417 80.2357 184.417 80.2357L175.397 82.114L169.86 83.262L166.913 72.4693C140.319 80.2777 133.816 88.5451 137.042 95.0715Z" fill="white"/>
<path opacity="0.2" d="M155.298 89.8106C155.298 89.8106 165.56 89.4619 170.531 87.2405C171.666 86.7918 172.689 86.1006 173.53 85.2152C174.37 84.3298 175.007 83.2716 175.396 82.1145L169.859 83.2625L155.298 89.8106Z" fill="black"/>
<path d="M512 219C520.837 219 528 211.837 528 203C528 194.163 520.837 187 512 187C503.163 187 496 194.163 496 203C496 211.837 503.163 219 512 219Z" fill="url(#paint10_linear)"/>
<path d="M161.71 349.691C161.718 308.721 177.347 269.294 205.414 239.441C233.481 209.588 271.875 191.554 312.776 189.011C353.678 186.468 394.011 199.609 425.56 225.756C457.11 251.903 477.504 289.091 482.589 329.744C486.559 361.553 480.941 393.823 466.455 422.421C450.113 454.741 423.349 480.608 390.487 495.844C357.625 511.079 320.585 514.793 285.351 506.384C250.118 497.975 218.749 477.935 196.314 449.503C173.878 421.07 161.687 385.906 161.71 349.691V349.691Z" fill="url(#paint11_linear)"/>
<path d="M175.527 415.051C253.373 454.995 280.064 438.243 363.236 408.607C410.771 391.651 445.467 406.546 466.454 422.422C452.689 449.599 431.496 472.316 405.336 487.936C379.176 503.555 349.121 511.436 318.661 510.664C288.2 509.893 258.583 500.5 233.248 483.576C207.912 466.652 187.898 442.891 175.527 415.051V415.051Z" fill="url(#paint12_linear)"/>
<path d="M167.898 305.215C178.155 269.56 200.41 238.537 230.902 217.391C261.394 196.244 298.254 186.271 335.251 189.155C372.249 192.039 407.117 207.604 433.962 233.219C460.807 258.835 477.984 292.931 482.589 329.745C468.426 316.391 451.666 306.092 433.351 299.489C415.037 292.886 395.56 290.121 376.13 291.365C291.475 296.342 226.414 356.137 167.898 305.215Z" fill="url(#paint13_linear)"/>
<circle cx="433" cy="171" r="4" fill="#9EA1EB"/>
<circle cx="6" cy="269" r="6" fill="#9EA1EB"/>
<defs>
<linearGradient id="paint0_linear" x1="300.915" y1="61.1475" x2="227.192" y2="73.5862" gradientUnits="userSpaceOnUse">
<stop offset="0.005" stop-color="#FEA7AF"/>
<stop offset="0.973" stop-color="#EA47AC"/>
</linearGradient>
<linearGradient id="paint1_linear" x1="87.0702" y1="94.6688" x2="85.813" y2="99.369" gradientUnits="userSpaceOnUse">
<stop stop-color="#6C67F2"/>
<stop offset="1" stop-color="#D7C9F9"/>
</linearGradient>
<linearGradient id="paint2_linear" x1="169.425" y1="97.5577" x2="158.699" y2="162.517" gradientUnits="userSpaceOnUse">
<stop stop-color="#6C67F2"/>
<stop offset="1" stop-color="#D7C9F9"/>
</linearGradient>
<linearGradient id="paint3_linear" x1="106.374" y1="98.879" x2="105.659" y2="106.66" gradientUnits="userSpaceOnUse">
<stop stop-color="#6C67F2"/>
<stop offset="1" stop-color="#D7C9F9"/>
</linearGradient>
<linearGradient id="paint4_linear" x1="49.0605" y1="137.095" x2="47.4768" y2="142.099" gradientUnits="userSpaceOnUse">
<stop stop-color="#6C67F2"/>
<stop offset="1" stop-color="#D7C9F9"/>
</linearGradient>
<linearGradient id="paint5_linear" x1="163.469" y1="112.272" x2="164.144" y2="156.76" gradientUnits="userSpaceOnUse">
<stop stop-color="#6C67F2"/>
<stop offset="1" stop-color="#D7C9F9"/>
</linearGradient>
<linearGradient id="paint6_linear" x1="68.0809" y1="130.054" x2="63.5003" y2="141.278" gradientUnits="userSpaceOnUse">
<stop stop-color="#6C67F2"/>
<stop offset="1" stop-color="#D7C9F9"/>
</linearGradient>
<linearGradient id="paint7_linear" x1="217.305" y1="109.741" x2="169.975" y2="117.726" gradientUnits="userSpaceOnUse">
<stop offset="0.005" stop-color="#FEA7AF"/>
<stop offset="0.973" stop-color="#EA47AC"/>
</linearGradient>
<linearGradient id="paint8_linear" x1="236.908" y1="94.0614" x2="176.512" y2="104.252" gradientUnits="userSpaceOnUse">
<stop offset="0.005" stop-color="#FEA7AF"/>
<stop offset="0.973" stop-color="#EA47AC"/>
</linearGradient>
<linearGradient id="paint9_linear" x1="185.185" y1="84.7751" x2="136.363" y2="93.0125" gradientUnits="userSpaceOnUse">
<stop offset="0.005" stop-color="#FEA7AF"/>
<stop offset="0.973" stop-color="#EA47AC"/>
</linearGradient>
<linearGradient id="paint10_linear" x1="505.074" y1="191.502" x2="520.242" y2="219" gradientUnits="userSpaceOnUse">
<stop stop-color="#F29C96"/>
<stop offset="0.942708" stop-color="#F8D2BF"/>
</linearGradient>
<linearGradient id="paint11_linear" x1="392.492" y1="465.469" x2="239.824" y2="188.686" gradientUnits="userSpaceOnUse">
<stop stop-color="#5FA8ED"/>
<stop offset="1" stop-color="#7ED5B7"/>
</linearGradient>
<linearGradient id="paint12_linear" x1="383.962" y1="495.294" x2="359.483" y2="377.524" gradientUnits="userSpaceOnUse">
<stop stop-color="#5FA8ED"/>
<stop offset="1" stop-color="#7ED5B7"/>
</linearGradient>
<linearGradient id="paint13_linear" x1="393.358" y1="309.897" x2="356.508" y2="160.889" gradientUnits="userSpaceOnUse">
<stop stop-color="#5FA8ED"/>
<stop offset="1" stop-color="#7ED5B7"/>
</linearGradient>
</defs>
</svg>
