<svg width="373" height="513" viewBox="0 0 373 513" fill="none" xmlns="http://www.w3.org/2000/svg">
<path d="M311.409 288.818L310.468 279.359L297.14 279.113L284.911 278.908L284.2 290.321L298.605 289.532L311.409 288.818Z" fill="#FFD4CE"/>
<path d="M309.662 277.392C308.62 277.519 310.71 290.253 310.71 290.253C310.71 290.253 319.512 297.34 322.075 304.821C324.637 312.302 328.808 307.565 327.959 299.005C327.11 290.444 326.459 283.912 325.85 277.83C325.242 271.748 320.448 276.063 309.662 277.392Z" fill="#43446C"/>
<path d="M314.666 296.668C314.734 297.066 314.665 297.476 314.47 297.83C314.32 298.031 314.111 298.181 313.872 298.261C313.634 298.341 313.376 298.346 313.135 298.275C312.946 298.246 312.766 298.177 312.605 298.074C312.444 297.972 312.306 297.837 312.2 297.678C311.74 296.805 311.532 295.82 311.6 294.836C311.147 295.932 310.563 296.912 309.894 297.018C309.456 297.086 309.067 296.839 308.731 296.282C308.579 296.038 308.481 295.764 308.445 295.478C308.409 295.193 308.435 294.903 308.522 294.629C309.07 292.828 311.93 291.458 312.078 291.387C312.122 291.366 312.17 291.355 312.219 291.355C312.255 291.354 312.291 291.359 312.325 291.369C312.361 291.381 312.394 291.398 312.425 291.418V291.418C312.462 291.444 312.492 291.478 312.515 291.517C313.525 293.096 314.253 294.839 314.666 296.668ZM312.323 295.8C312.343 296.322 312.491 296.831 312.753 297.283C312.807 297.367 312.878 297.439 312.961 297.495C313.045 297.55 313.139 297.588 313.238 297.605C313.752 297.682 313.867 297.509 313.907 297.453C314.342 296.799 313.404 294.522 312.417 292.713C312.278 293.738 312.245 294.774 312.317 295.805L312.323 295.8ZM309.115 295.357C309.137 295.561 309.205 295.758 309.314 295.932C309.414 296.099 309.61 296.375 309.788 296.347C310.36 296.257 311.176 294.325 311.708 292.356C310.865 292.844 309.489 293.781 309.178 294.827C309.119 294.997 309.095 295.178 309.109 295.357H309.115Z" fill="url(#paint0_linear)"/>
<path opacity="0.2" d="M298.898 289.501L297.4 279.085L285.043 278.893L284.266 290.312L298.898 289.501Z" fill="black"/>
<path d="M157.045 209.606C157.045 209.606 188.963 211.755 231.186 266.848L291.475 276.406L294.665 291.275C294.665 291.275 236.066 293.873 218.362 287.802C200.658 281.731 165.229 248.064 165.229 248.064L135.397 224.118L157.045 209.606Z" fill="url(#paint1_linear)"/>
<path opacity="0.6" d="M294.664 291.265C294.664 291.265 236.062 293.865 218.365 287.793C200.668 281.721 165.232 248.056 165.232 248.056L135.404 224.117L157.051 209.611C157.051 209.611 181.748 211.27 216.439 249.194C219.743 252.807 223.144 256.728 226.616 261.03C228.12 262.904 229.643 264.844 231.185 266.849L291.473 276.407L294.664 291.265Z" fill="white"/>
<path opacity="0.2" d="M226.616 261.03C217.339 262.604 204.66 261.845 189.311 253.791L209.271 248L216.439 249.194C219.743 252.807 223.144 256.729 226.616 261.03Z" fill="black"/>
<path d="M290.011 275.432L293.339 292.712L296.721 292.356L293.348 276.131L290.011 275.432Z" fill="url(#paint2_linear)"/>
<path d="M347.916 224.922L343.162 216.687L330.915 221.954L319.688 226.804L323.741 237.496L336.542 230.844L347.916 224.922Z" fill="#FFD4CE"/>
<path d="M341.616 215.228C340.721 215.774 347.871 226.516 347.871 226.516C347.871 226.516 358.811 229.348 364.227 235.108C369.643 240.869 371.493 234.827 367.192 227.386C362.891 219.944 359.61 214.25 356.554 208.958C353.498 203.666 350.899 209.575 341.616 215.228Z" fill="#43446C"/>
<path d="M354.114 230.735C354.341 231.07 354.446 231.471 354.414 231.874C354.362 232.192 354.139 232.616 353.382 232.83C353.198 232.881 353.005 232.893 352.815 232.866C352.626 232.839 352.445 232.772 352.283 232.671C351.503 232.065 350.909 231.253 350.565 230.328C350.604 231.513 350.475 232.649 349.908 233.02C349.69 233.135 349.441 233.178 349.197 233.144C348.953 233.109 348.726 232.999 348.548 232.828C348.308 232.669 348.106 232.46 347.955 232.214C347.805 231.969 347.709 231.694 347.675 231.409C347.433 229.541 349.474 227.115 349.581 226.989C349.611 226.954 349.648 226.925 349.689 226.904V226.904C349.722 226.887 349.757 226.877 349.793 226.871V226.871C349.829 226.865 349.867 226.865 349.903 226.871C349.947 226.88 349.988 226.898 350.025 226.923C351.599 227.947 352.982 229.237 354.114 230.735V230.735ZM351.621 230.908C351.854 231.376 352.198 231.779 352.623 232.083C352.707 232.138 352.801 232.175 352.9 232.191C352.999 232.207 353.101 232.203 353.198 232.178C353.699 232.037 353.733 231.83 353.744 231.763C353.872 230.988 352.079 229.3 350.434 228.058C350.732 229.046 351.13 230.001 351.621 230.908V230.908ZM348.514 231.826C348.619 232.004 348.763 232.155 348.936 232.269C349.096 232.38 349.387 232.55 349.537 232.452C350.022 232.134 349.969 230.038 349.644 228.025C348.868 228.955 348.414 230.112 348.351 231.322C348.371 231.499 348.427 231.671 348.514 231.826V231.826Z" fill="url(#paint3_linear)"/>
<path opacity="0.2" d="M336.798 230.697L331.143 221.824L319.804 226.743L323.8 237.468L336.798 230.697Z" fill="black"/>
<path d="M114.514 205.193C114.514 205.193 112.79 230.719 111.011 232.109C109.231 233.499 79.2024 254.901 79.2024 254.901C79.2024 254.901 68.8288 256.57 65.5353 258.238C62.2419 259.907 65.0223 270.195 66.6908 271.583C68.3593 272.972 82.8163 265.746 82.8163 265.746L84.7631 262.451C84.7631 262.451 117.33 243.78 120.371 242.111C123.411 240.443 130.428 211.328 130.428 211.328L114.514 205.193Z" fill="#FFD4CE"/>
<path d="M119.348 191.244C109.508 194.572 111.106 218.762 111.106 218.762L128.803 224.323L132.676 216.815L119.348 191.244Z" fill="url(#paint4_linear)"/>
<path opacity="0.2" d="M119.348 191.244C109.508 194.572 111.106 218.762 111.106 218.762L128.803 224.323L132.676 216.815L119.348 191.244Z" fill="black"/>
<path d="M174.629 216.329C174.629 216.329 204.598 205.139 265.766 237.948L324.646 221.821L333.676 234.05C333.676 234.05 281.351 260.556 262.717 262.317C244.084 264.079 197.93 247.995 197.93 247.995L160.887 238.468L174.629 216.329Z" fill="url(#paint5_linear)"/>
<path opacity="0.6" d="M174.629 216.329C174.629 216.329 204.598 205.139 265.766 237.948L324.646 221.821L333.676 234.05C333.676 234.05 281.351 260.556 262.717 262.317C244.084 264.079 197.93 247.995 197.93 247.995L160.887 238.468L174.629 216.329Z" fill="white"/>
<path d="M321.931 221.08H325.452L335.461 234.241L331.94 236.281L321.931 221.08Z" fill="url(#paint6_linear)"/>
<path d="M128.803 140.732C128.803 140.732 144.077 134.795 155.238 144.905C162.279 151.286 178.74 166.751 187.36 161.477C195.979 156.203 209.881 151.446 216.271 157.993C216.271 157.993 205.706 157.291 200.424 161.477C200.424 161.477 210.433 158.688 214.047 161.477C217.661 164.265 223.222 163.04 223.222 163.04C223.222 163.04 227.86 177.939 203.295 179.72C203.295 179.72 215.994 182.277 221.832 177.304C221.832 177.304 223.5 187.915 194.862 191.244C166.223 194.572 141.263 189.679 135.393 181.143C129.523 172.606 128.803 140.732 128.803 140.732Z" fill="#43446C"/>
<path d="M203.297 212.929C203.297 212.929 197.744 241.604 175.873 245.989C172.419 246.729 168.856 246.81 165.373 246.228C158.665 244.952 152.739 241.064 148.898 235.419C147.735 233.841 146.749 232.139 145.961 230.345L177.7 214.264L180.314 212.929C184.42 212.083 188.583 211.547 192.768 211.326C196.845 211.158 200.935 211.467 203.297 212.929Z" fill="url(#paint7_linear)"/>
<path opacity="0.2" d="M183.843 231.455C177.545 238.202 171.67 243.164 165.372 246.228C158.665 244.952 152.739 241.064 148.898 235.419C158.105 227.846 167.72 220.784 177.7 214.264L180.314 212.929C184.42 212.083 188.583 211.547 192.768 211.326C194.23 215.431 192.614 222.065 183.843 231.455Z" fill="black"/>
<path d="M119.347 191.244C138.518 184.854 159.032 183.616 178.833 187.654C178.833 187.654 189.583 205.506 192.92 219.597C192.92 219.597 176.017 244.435 152.958 243.693C129.898 242.95 119.347 191.244 119.347 191.244Z" fill="url(#paint8_linear)"/>
<path d="M169.38 191.978C169.38 191.978 148.196 176.979 131.91 191.244" stroke="#43446C" stroke-width="0.5" stroke-linecap="round" stroke-linejoin="round"/>
<path d="M117.032 164.427C117.032 164.427 115.281 133.516 142.389 140.982C176.415 150.355 156.225 191.181 139.483 185.769C122.742 180.357 117.032 164.427 117.032 164.427Z" fill="#43446C"/>
<path d="M160.888 189.103C160.888 189.103 154.732 206.252 144.077 205.142C141.254 204.837 138.561 203.792 136.273 202.11C133.984 200.429 132.181 198.172 131.047 195.569C130.808 195.067 130.602 194.551 130.428 194.023C130.428 194.023 135.854 192.406 132.41 187.655L145.75 177.296C145.736 178.728 145.806 180.159 145.961 181.583C146.27 184.113 146.945 186.938 148.519 187.655C151.499 189.019 160.888 189.103 160.888 189.103Z" fill="#FFD4CE"/>
<path opacity="0.2" d="M145.961 181.583C144.878 187.669 141.519 196.989 131.047 195.569C130.808 195.067 130.602 194.551 130.428 194.023C130.428 194.023 135.854 192.406 132.41 187.655L145.75 177.296C145.736 178.728 145.806 180.159 145.961 181.583Z" fill="black"/>
<path d="M134.864 148.594C122.917 147.677 118.582 153.779 116.763 166.024C114.488 181.326 117.062 192.517 132.251 190.377C152.876 187.47 154.704 150.115 134.864 148.594Z" fill="#FFD4CE"/>
<path d="M124.536 165.948C123.443 167.66 122.149 169.233 120.68 170.636C120.992 171.156 121.441 171.58 121.979 171.861C122.516 172.142 123.121 172.269 123.726 172.228L124.536 165.948Z" fill="#D4827D"/>
<path d="M131.924 165.532C131.825 166.516 132.275 167.359 132.929 167.424C133.582 167.489 134.194 166.748 134.288 165.769C134.382 164.791 133.937 163.942 133.284 163.876C132.632 163.81 132.022 164.552 131.924 165.532Z" fill="#43446C"/>
<path d="M133.551 163.956L131.505 162.908C131.505 162.908 132.386 164.8 133.551 163.956Z" fill="#43446C"/>
<path d="M119.765 164.107C119.668 165.09 120.118 165.934 120.771 165.998C121.423 166.063 122.036 165.324 122.131 164.344C122.227 163.364 121.78 162.517 121.126 162.452C120.472 162.387 119.864 163.127 119.765 164.107Z" fill="#43446C"/>
<path d="M121.39 162.527L119.344 161.477C119.344 161.477 120.228 163.376 121.39 162.527Z" fill="#43446C"/>
<path d="M132.676 157.291C133.629 157.248 134.579 157.425 135.453 157.807C136.328 158.189 137.103 158.766 137.719 159.495" stroke="#43446C" stroke-width="0.725" stroke-linecap="round" stroke-linejoin="round"/>
<path d="M124.031 156.12C123.231 155.851 122.38 155.766 121.542 155.873C120.704 155.98 119.901 156.275 119.194 156.737" stroke="#43446C" stroke-width="0.725" stroke-linecap="round" stroke-linejoin="round"/>
<path d="M146.377 169.73C146.377 169.73 141.544 159.486 142.971 151.973C142.971 151.973 120.038 140.486 117.027 164.427C117.027 164.427 116.35 142.912 136.924 144.011C157.465 145.108 157.514 175.087 146.221 183.229C146.221 183.226 149.362 176.135 146.377 169.73Z" fill="#43446C"/>
<path d="M144.232 172.109C144.454 170.735 145.211 169.506 146.337 168.689C147.464 167.873 148.868 167.535 150.242 167.751C153.912 168.44 155.094 176.175 145.744 177.297C144.405 177.45 143.758 176.104 144.232 172.109Z" fill="#FFD4CE"/>
<path d="M122.278 176.925C122.784 178.299 123.19 179.708 123.491 181.142C123.75 181.133 124.007 181.126 124.264 181.104C127.765 180.907 129.325 179.659 129.988 178.334C130.3 177.682 130.451 176.963 130.427 176.24C130.427 175.83 130.369 175.421 130.257 175.027C128.151 176.11 125.836 176.727 123.47 176.836C122.741 176.913 122.278 176.925 122.278 176.925Z" fill="#43446C"/>
<path d="M123.47 176.837L123.861 178.073C127.156 177.879 129.451 177.298 130.427 176.246C130.427 175.835 130.37 175.427 130.257 175.033C128.15 176.114 125.836 176.73 123.47 176.837Z" fill="white"/>
<path d="M124.265 181.105C127.765 180.908 129.325 179.66 129.989 178.336C128.66 178.435 127.359 178.768 126.147 179.32C125.348 179.703 124.69 180.327 124.265 181.105V181.105Z" fill="#EC7774"/>
<path d="M135.042 149.515C135.042 149.515 138.348 169.542 150.745 170.239C163.143 170.937 145.949 144.581 145.949 144.581C145.949 144.581 126.334 135.41 115.545 145.374C104.757 155.337 117.027 164.427 117.027 164.427C117.027 164.427 117.432 149.145 135.042 149.515Z" fill="#43446C"/>
<path d="M135.269 148.127C135.269 148.127 132.778 161.437 142.212 166.9" stroke="#43446C" stroke-width="0.5" stroke-linecap="round" stroke-linejoin="round"/>
<path d="M131.91 191.244C126.717 195.794 153.995 205.694 169.38 191.978" stroke="#43446C" stroke-width="0.5" stroke-linecap="round" stroke-linejoin="round"/>
<path d="M168.703 191.978L173.92 189.845L175.648 191.244L174.291 192.997L168.703 191.978Z" fill="url(#paint9_linear)"/>
<path opacity="0.6" d="M168.703 191.978L173.92 189.845L175.648 191.244L174.291 192.997L168.703 191.978Z" fill="white"/>
<path d="M194.905 191.947C194.905 191.947 221.865 198.12 226.774 199.415C231.682 200.709 266.48 215.658 266.48 215.658C266.48 215.658 278.929 210.935 280.343 212.328C281.757 213.721 284.869 220.795 284.586 222.493C284.304 224.191 266.763 227.585 265.914 227.019C264.677 225.792 263.542 224.468 262.519 223.058C262.519 223.058 228.005 210.969 221.498 209.514C214.992 208.06 192.925 206.141 192.925 206.141L194.905 191.947Z" fill="#FFD4CE"/>
<path d="M178.833 187.654C178.833 187.654 178.833 205.194 189.311 211.284L207.964 209.611L212.94 193.739C212.94 193.739 195.608 187.963 178.833 187.654Z" fill="url(#paint10_linear)"/>
<path opacity="0.2" d="M178.833 187.654C178.833 187.654 178.833 205.194 189.311 211.284L207.964 209.611L212.94 193.739C212.94 193.739 195.608 187.963 178.833 187.654Z" fill="black"/>
<path d="M200 513C247.496 513 286 474.496 286 427C286 379.504 247.496 341 200 341C152.503 341 114 379.504 114 427C114 474.496 152.503 513 200 513Z" fill="url(#paint11_linear)"/>
<path d="M126.276 471.294C158.382 425.408 198.282 385.385 244.071 353.149C269.18 368.167 286 395.614 286 427C286 474.496 247.496 513 200 513C168.705 513 141.322 496.282 126.276 471.294V471.294Z" fill="url(#paint12_linear)"/>
<circle cx="118" cy="299" r="4" fill="#9EA1EB"/>
<circle cx="6" cy="422" r="6" fill="#9EA1EB"/>
<defs>
<linearGradient id="paint0_linear" x1="310.205" y1="292.336" x2="313.688" y2="298.009" gradientUnits="userSpaceOnUse">
<stop stop-color="#4A7AF9"/>
<stop offset="1" stop-color="#B4E1EF"/>
</linearGradient>
<linearGradient id="paint1_linear" x1="180.557" y1="221.174" x2="204.832" y2="306.415" gradientUnits="userSpaceOnUse">
<stop stop-color="#4A7AF9"/>
<stop offset="1" stop-color="#B4E1EF"/>
</linearGradient>
<linearGradient id="paint2_linear" x1="291.914" y1="277.863" x2="301.03" y2="284.281" gradientUnits="userSpaceOnUse">
<stop stop-color="#4A7AF9"/>
<stop offset="1" stop-color="#B4E1EF"/>
</linearGradient>
<linearGradient id="paint3_linear" x1="349.573" y1="227.751" x2="352.435" y2="233.332" gradientUnits="userSpaceOnUse">
<stop stop-color="#4A7AF9"/>
<stop offset="1" stop-color="#B4E1EF"/>
</linearGradient>
<linearGradient id="paint4_linear" x1="117.154" y1="195.898" x2="135.421" y2="217.587" gradientUnits="userSpaceOnUse">
<stop stop-color="#4A7AF9"/>
<stop offset="1" stop-color="#B4E1EF"/>
</linearGradient>
<linearGradient id="paint5_linear" x1="209.881" y1="221.237" x2="217.924" y2="273.763" gradientUnits="userSpaceOnUse">
<stop stop-color="#4A7AF9"/>
<stop offset="1" stop-color="#B4E1EF"/>
</linearGradient>
<linearGradient id="paint6_linear" x1="325.767" y1="223.219" x2="333.396" y2="235.528" gradientUnits="userSpaceOnUse">
<stop stop-color="#4A7AF9"/>
<stop offset="1" stop-color="#B4E1EF"/>
</linearGradient>
<linearGradient id="paint7_linear" x1="162.218" y1="216.255" x2="174.282" y2="251.749" gradientUnits="userSpaceOnUse">
<stop stop-color="#4A7AF9"/>
<stop offset="1" stop-color="#B4E1EF"/>
</linearGradient>
<linearGradient id="paint8_linear" x1="140.209" y1="193.543" x2="164.245" y2="248.454" gradientUnits="userSpaceOnUse">
<stop stop-color="#4A7AF9"/>
<stop offset="1" stop-color="#B4E1EF"/>
</linearGradient>
<linearGradient id="paint9_linear" x1="170.672" y1="190.289" x2="171.504" y2="193.612" gradientUnits="userSpaceOnUse">
<stop stop-color="#4A7AF9"/>
<stop offset="1" stop-color="#B4E1EF"/>
</linearGradient>
<linearGradient id="paint10_linear" x1="188.504" y1="190.979" x2="197.336" y2="214.088" gradientUnits="userSpaceOnUse">
<stop stop-color="#4A7AF9"/>
<stop offset="1" stop-color="#B4E1EF"/>
</linearGradient>
<linearGradient id="paint11_linear" x1="162.771" y1="365.199" x2="244.303" y2="513" gradientUnits="userSpaceOnUse">
<stop stop-color="#6C67F2"/>
<stop offset="1" stop-color="#D7C9F9"/>
</linearGradient>
<linearGradient id="paint12_linear" x1="171.566" y1="375.639" x2="247.371" y2="512.949" gradientUnits="userSpaceOnUse">
<stop stop-color="#6C67F2"/>
<stop offset="1" stop-color="#D7C9F9"/>
</linearGradient>
</defs>
</svg>
