<svg width="557" height="513" viewBox="0 0 557 513" fill="none" xmlns="http://www.w3.org/2000/svg">
<path d="M286.287 45.1981L285.478 38.4021C285.354 37.345 284.984 36.3317 284.396 35.4442C283.809 34.5568 283.02 33.82 282.096 33.2934C281.171 32.7668 280.135 32.4652 279.072 32.4129C278.009 32.3607 276.948 32.5592 275.976 32.9926L275.929 33.0138C270.477 35.5035 262.839 88.872 262.839 88.872C262.839 88.872 254.639 100.417 254.905 102.498C255.171 104.578 264.996 110.048 266.171 107.944C267.345 105.839 275.047 99.62 275.09 96.0703C275.133 92.5205 271.32 89.2503 271.32 89.2503C271.32 89.2503 283.163 53.9407 286.287 45.1981Z" fill="#FFDCD0"/>
<path opacity="0.1" d="M286.287 45.1981L285.478 38.4021C285.354 37.345 284.984 36.3317 284.396 35.4442C283.809 34.5568 283.02 33.82 282.096 33.2934C281.171 32.7668 280.135 32.4652 279.072 32.4129C278.009 32.3607 276.948 32.5592 275.976 32.9926L275.929 33.0138C270.477 35.5035 262.839 88.872 262.839 88.872C262.839 88.872 254.639 100.417 254.905 102.498C255.171 104.578 264.996 110.048 266.171 107.944C267.345 105.839 275.047 99.62 275.09 96.0703C275.133 92.5205 271.32 89.2503 271.32 89.2503C271.32 89.2503 283.163 53.9407 286.287 45.1981Z" fill="black"/>
<path d="M288.162 75.7028L279.688 62.6569C279.688 62.6569 276.7 50.6436 287.314 47.6933L295.559 49.5422L288.162 75.7028Z" fill="url(#paint0_linear)"/>
<path opacity="0.5" d="M288.162 75.7028L279.688 62.6569C279.688 62.6569 276.7 50.6436 287.314 47.6933L295.559 49.5422L288.162 75.7028Z" fill="white"/>
<path d="M478.985 206.147L476.169 217.19L450.354 211.579L453.173 200.523L478.985 206.147Z" fill="#FFDCD0"/>
<path d="M475.483 217.76L470.759 204.746C470.682 204.533 470.681 204.3 470.754 204.085C470.828 203.871 470.972 203.687 471.163 203.565L479.937 197.99C480.316 197.756 480.772 197.681 481.206 197.782C481.64 197.883 482.016 198.152 482.253 198.53C482.318 198.635 482.372 198.748 482.413 198.865C483.873 203.1 484.727 206.262 486.646 211.549C487.828 214.806 491.736 224.509 493.369 229.009C495.003 233.51 490.77 235.706 489.695 234.014C484.899 226.409 480.148 221.1 476.818 219.317C476.189 218.989 475.711 218.431 475.483 217.76V217.76Z" fill="#484D58"/>
<path d="M478.65 220.622C478.972 221.329 479.043 222.124 478.85 222.877C478.76 223.134 478.605 223.363 478.4 223.543C478.195 223.723 477.948 223.847 477.682 223.904C477.535 223.962 477.374 223.975 477.22 223.943C477.065 223.912 476.923 223.835 476.811 223.724C475.768 222.761 476.637 218.529 476.745 218.057C476.751 218.005 476.774 217.957 476.81 217.919C476.846 217.881 476.893 217.856 476.945 217.847C476.998 217.835 477.053 217.838 477.104 217.858C477.155 217.877 477.2 217.91 477.232 217.954C477.802 218.788 478.277 219.683 478.65 220.622V220.622ZM477.006 223.022C477.038 223.139 477.103 223.244 477.194 223.325C477.217 223.393 477.349 223.439 477.553 223.38C477.729 223.34 477.893 223.258 478.03 223.141C478.168 223.023 478.275 222.874 478.342 222.707C478.451 221.307 478.024 219.918 477.147 218.822C476.835 220.2 476.79 221.625 477.013 223.021L477.006 223.022Z" fill="#407BFF"/>
<path d="M477.268 218.025L477.312 218.147C477.113 219.469 475.532 222.464 474.322 222.656C474.119 222.687 473.912 222.647 473.736 222.542C473.56 222.437 473.426 222.275 473.357 222.082C473.262 221.899 473.207 221.697 473.196 221.491C473.185 221.285 473.218 221.079 473.293 220.886C473.851 219.28 476.837 217.903 476.982 217.835C477.027 217.818 477.077 217.812 477.125 217.819C477.173 217.825 477.219 217.844 477.258 217.873C477.277 217.921 477.28 217.974 477.268 218.025ZM473.702 221.755L473.746 221.878C473.865 222.205 474.063 222.163 474.139 222.153C474.883 222.036 476.173 220.025 476.604 218.62C475.41 219.135 474.401 220.001 473.712 221.104C473.633 221.312 473.631 221.542 473.708 221.751L473.702 221.755Z" fill="#407BFF"/>
<path opacity="0.2" d="M453.187 200.526L450.368 211.582L463.682 214.469L466.501 203.413L453.187 200.526Z" fill="black"/>
<path d="M465.083 200.946L458.249 215.831C458.249 215.831 398.16 209.315 383.587 188.699C372.744 173.371 366.296 143.605 363.704 129.334C362.805 124.401 362.368 121.325 362.368 121.325L351.368 91.8463L404.925 91.5392C404.925 91.5392 398.841 124.355 399.736 148.866C400.095 158.534 401.53 166.899 404.862 171.456C416.635 187.579 465.083 200.946 465.083 200.946Z" fill="url(#paint1_linear)"/>
<path opacity="0.2" d="M404.925 91.5392C404.925 91.5392 398.841 124.355 399.736 148.866C394.655 143.093 390.814 136.338 388.454 129.018C381.611 130.754 371.277 130.159 363.704 129.334C362.805 124.401 362.368 121.325 362.368 121.325L351.368 91.8463L404.925 91.5392Z" fill="black"/>
<path d="M546.108 201.755L539.383 210.955L517.516 196.134L524.25 186.923L546.108 201.755Z" fill="#FFDCD0"/>
<path d="M538.53 211.225L538.992 197.387C539 197.16 539.086 196.943 539.234 196.771C539.382 196.599 539.584 196.482 539.807 196.44L550.025 194.534C550.464 194.457 550.915 194.558 551.28 194.813C551.645 195.068 551.894 195.457 551.974 195.895C551.995 196.018 552.003 196.143 551.998 196.268C551.775 200.742 551.391 203.994 551.204 209.615C551.089 213.078 551.102 223.538 550.943 228.32C550.783 233.103 546.038 233.567 545.67 231.595C544.051 222.751 541.619 216.055 539.192 213.161C538.731 212.624 538.494 211.931 538.53 211.225Z" fill="#484D58"/>
<path d="M540.403 215.059C540.439 215.835 540.209 216.6 539.752 217.227C539.571 217.432 539.342 217.587 539.085 217.677C538.828 217.768 538.552 217.791 538.283 217.745C538.126 217.743 537.973 217.696 537.842 217.609C537.711 217.522 537.608 217.399 537.545 217.255C536.935 215.973 539.319 212.373 539.592 211.971C539.618 211.924 539.658 211.887 539.707 211.865C539.755 211.843 539.809 211.838 539.861 211.849C539.915 211.859 539.965 211.884 540.005 211.921C540.045 211.958 540.073 212.006 540.086 212.059C540.302 213.044 540.409 214.05 540.403 215.059V215.059ZM537.986 216.675C537.971 216.795 537.992 216.917 538.046 217.026C538.043 217.098 538.142 217.189 538.359 217.209C538.538 217.238 538.72 217.224 538.891 217.166C539.063 217.109 539.217 217.011 539.342 216.88C539.964 215.621 540.085 214.174 539.681 212.829C538.875 213.991 538.3 215.296 537.986 216.675Z" fill="#407BFF"/>
<path d="M540.096 212.133L540.092 212.264C539.415 213.416 536.832 215.606 535.637 215.342C535.438 215.295 535.261 215.18 535.137 215.017C535.013 214.854 534.949 214.653 534.956 214.448C534.937 214.243 534.961 214.035 535.027 213.84C535.094 213.645 535.201 213.466 535.342 213.315C536.463 212.032 539.743 211.866 539.902 211.857C539.951 211.859 539.999 211.872 540.041 211.896C540.084 211.921 540.119 211.955 540.145 211.997C540.142 212.046 540.125 212.093 540.096 212.133V212.133ZM535.396 214.268L535.39 214.399C535.379 214.746 535.577 214.782 535.652 214.793C536.387 214.961 538.338 213.575 539.257 212.431C537.956 212.464 536.697 212.893 535.646 213.659C535.492 213.825 535.403 214.042 535.397 214.268L535.396 214.268Z" fill="#407BFF"/>
<path opacity="0.2" d="M524.255 186.926L517.521 196.136L528.803 203.773L535.537 194.562L524.255 186.926Z" fill="black"/>
<path d="M532.25 188.684L520.602 203.803C520.602 203.803 465.083 177.66 444.4 159.102C435.635 151.242 402.375 115.285 394.427 106.677C393.322 105.478 392.705 104.815 392.705 104.815L354.467 83.0403L375.279 40.0472C375.279 40.0472 386.874 41.9642 400.728 51.6669C402.78 53.0928 404.882 54.6968 407.008 56.4962C415.2 63.5056 422.145 71.8541 427.545 81.1865C428.962 83.5798 430.326 86.1164 431.636 88.7962C460.351 147.562 532.25 188.684 532.25 188.684Z" fill="url(#paint2_linear)"/>
<path d="M285.165 68.3933C285.165 68.3933 294.911 45.9915 333.696 38.1225C372.482 30.2535 405.625 49.6696 405.625 49.6696C405.625 49.6696 419.23 97.6933 381.261 115.976C367.56 122.574 350.546 116.551 350.546 116.551L345.065 100.566C345.065 100.566 291.768 83.2531 285.165 68.3933Z" fill="#407BFF"/>
<path opacity="0.8" d="M407.478 77.8013C406.291 87.5686 402.773 98.1941 394.426 106.677C390.616 110.522 386.162 113.668 381.264 115.974C367.555 122.575 350.544 116.547 350.544 116.547L345.059 100.568C345.059 100.568 291.766 83.2475 285.169 68.3912C285.169 68.3912 294.916 45.9964 333.699 38.1206C372.482 30.2448 405.627 49.6677 405.627 49.6677C405.627 49.6677 405.705 49.9698 405.843 50.5337C406.116 51.6337 406.59 53.7147 407.007 56.4963C408.134 63.5433 408.293 70.7114 407.478 77.8013Z" fill="white"/>
<path d="M372.768 29.2736C372.768 29.2736 401.177 12.5292 407.89 9.633C414.603 6.73684 469.14 43.4764 469.14 43.4764C469.14 43.4764 486.293 45.5 487.956 47.4422C489.62 49.3843 486.535 62.7483 483.672 62.0871C480.809 61.426 468.879 63.3128 465.64 60.4456C462.401 57.5785 462.551 51.4553 462.551 51.4553C462.551 51.4553 411.148 29.0347 408.199 28.0794C406.073 27.3899 380.392 45.1231 380.392 45.1231L372.768 29.2736Z" fill="#FFDCD0"/>
<path opacity="0.2" d="M427.545 81.1864C420.801 80.4179 414.103 79.2879 407.479 77.8011C376.648 70.7862 367.57 58.9858 367.57 58.9858L400.728 51.6668L405.845 50.5335C406.118 51.6335 406.592 53.7145 407.008 56.4961C415.201 63.5055 422.145 71.854 427.545 81.1864V81.1864Z" fill="black"/>
<path d="M316.376 70.6842C313.862 71.4357 311.193 71.496 308.648 70.8587C300.712 68.9319 295.396 61.2019 295.396 61.2019C296.141 50.4552 306.143 45.2237 315.054 43.5124C318.817 42.6637 322.714 42.5956 326.504 43.3121C334.165 45.3057 328.394 67.1433 316.376 70.6842Z" fill="#FFDCD0"/>
<path opacity="0.2" d="M308.647 70.8582C300.711 68.9313 295.395 61.2013 295.395 61.2013C296.141 50.4546 306.143 45.2231 315.054 43.5118C317.097 49.4856 319.267 61.5101 308.647 70.8582Z" fill="black"/>
<path d="M293.672 67.4633C295.041 74.5805 309.984 87.715 329.356 94.8903C329.356 94.8903 305.928 93.4442 292.816 80.7259C279.703 68.0076 283.391 63.3045 292.485 58.116L293.672 67.4633Z" fill="url(#paint3_linear)"/>
<path opacity="0.4" d="M293.672 67.4633C295.041 74.5805 309.984 87.715 329.356 94.8903C329.356 94.8903 305.928 93.4442 292.816 80.7259C279.703 68.0076 283.391 63.3045 292.485 58.116L293.672 67.4633Z" fill="white"/>
<path d="M314.227 42.0964C330.222 38.883 329.369 45.2897 338.836 54.3951C358.126 72.9444 448.209 59.3045 448.209 59.3045C448.209 59.3045 426.577 36.4165 395.745 31.4557C364.913 26.4948 314.227 42.0964 314.227 42.0964Z" fill="url(#paint4_linear)"/>
<path opacity="0.4" d="M314.227 42.0964C330.222 38.883 329.369 45.2897 338.836 54.3951C358.126 72.9444 448.209 59.3045 448.209 59.3045C448.209 59.3045 426.577 36.4165 395.745 31.4557C364.913 26.4948 314.227 42.0964 314.227 42.0964Z" fill="white"/>
<path d="M284.012 68.6139C284.012 68.6139 281.946 52.6248 303.017 41.4683C324.088 30.3119 346.197 48.4816 346.197 48.4816L337.879 48.7053L338.839 54.3947C338.839 54.3947 323.551 45.0328 310.66 47.7462C297.769 50.4596 293.675 67.4643 293.675 67.4643L287.445 62.6063L284.012 68.6139Z" fill="url(#paint5_linear)"/>
<path opacity="0.5" d="M284.012 68.6139C284.012 68.6139 281.946 52.6248 303.017 41.4683C324.088 30.3119 346.197 48.4816 346.197 48.4816L337.879 48.7053L338.839 54.3947C338.839 54.3947 323.551 45.0328 310.66 47.7462C297.769 50.4596 293.675 67.4643 293.675 67.4643L287.445 62.6063L284.012 68.6139Z" fill="white"/>
<path d="M279.383 26.5875C279.383 26.5875 278.455 42.4478 287.313 47.6933C296.171 52.9389 293.473 23.8261 293.473 23.8261L279.383 26.5875Z" fill="#484D58"/>
<path d="M312.565 57.8899C311.063 60.6253 308.705 62.7924 305.852 64.0588C303 65.3253 299.812 65.6211 296.775 64.9008C292.83 64.0421 289.361 61.7136 287.071 58.3886C286.75 57.9268 286.453 57.4486 286.182 56.9558C281.211 47.7804 278.362 31.181 287.887 23.9791C289.984 22.3784 292.455 21.3405 295.065 20.9643C297.676 20.588 300.339 20.8858 302.802 21.8294C305.265 22.7729 307.446 24.3309 309.137 26.355C310.828 28.3792 311.973 30.8024 312.464 33.394C314.741 44.453 316.601 50.8464 312.565 57.8899Z" fill="#FFDCD0"/>
<path d="M296.728 40.8742C297.025 41.7377 296.693 42.6025 296.103 42.7591C295.513 42.9158 294.861 42.3126 294.619 41.4298C294.376 40.5471 294.666 39.6972 295.243 39.5449C295.821 39.3925 296.481 39.9764 296.728 40.8742Z" fill="#484D58"/>
<path d="M286.689 43.5606C286.987 44.424 286.642 45.2932 286.064 45.4456C285.486 45.5979 284.822 44.999 284.579 44.1163C284.337 43.2335 284.628 42.3835 285.204 42.2313C285.781 42.0791 286.461 42.7144 286.689 43.5606Z" fill="#484D58"/>
<path d="M289.996 43.1426C289.664 46.142 288.918 49.081 287.78 51.8759C288.508 52.1498 289.287 52.2607 290.063 52.2009C290.838 52.141 291.591 51.9119 292.269 51.5295L289.996 43.1426Z" fill="#FFBCB0"/>
<path d="M298.972 36.789C298.881 36.8272 298.78 36.8404 298.682 36.8273C298.583 36.8142 298.49 36.7752 298.411 36.7142C297.887 36.2863 297.27 35.9863 296.61 35.8382C295.949 35.6901 295.263 35.6979 294.607 35.8609C294.54 35.884 294.47 35.8937 294.399 35.8896C294.329 35.8854 294.26 35.8675 294.197 35.8368C294.134 35.8061 294.077 35.7632 294.03 35.7106C293.983 35.658 293.948 35.5967 293.924 35.5302C293.901 35.4637 293.892 35.3933 293.896 35.3231C293.9 35.2528 293.918 35.184 293.949 35.1207C293.979 35.0573 294.022 35.0007 294.075 34.9539C294.127 34.9071 294.189 34.8712 294.255 34.8481V34.8481C295.08 34.6203 295.947 34.5935 296.784 34.7699C297.621 34.9463 298.403 35.3208 299.066 35.862C299.123 35.9036 299.171 35.956 299.207 36.0162C299.244 36.0764 299.268 36.1432 299.279 36.2128C299.289 36.2824 299.286 36.3534 299.269 36.4218C299.252 36.4902 299.222 36.5546 299.18 36.6113L299.173 36.622C299.115 36.6876 299.047 36.7439 298.972 36.789V36.789Z" fill="#484D58"/>
<path d="M281.45 41.2531C281.363 41.3188 281.257 41.3552 281.148 41.357C281.079 41.3449 281.012 41.3192 280.953 41.2814C280.894 41.2436 280.842 41.1944 280.802 41.1367C280.762 41.079 280.733 41.014 280.718 40.9452C280.703 40.8765 280.702 40.8055 280.714 40.7363L280.713 40.7251C280.856 39.8791 281.201 39.08 281.718 38.3951C282.234 37.7102 282.908 37.1596 283.683 36.7899C283.748 36.7633 283.818 36.7497 283.888 36.7501C283.959 36.7505 284.029 36.7648 284.093 36.7922C284.158 36.8196 284.217 36.8595 284.267 36.9097C284.316 36.9598 284.355 37.0193 284.382 37.0846V37.0846C284.431 37.2169 284.428 37.3632 284.373 37.4934C284.318 37.6235 284.215 37.7275 284.086 37.7838V37.7838C283.483 38.094 282.961 38.5406 282.561 39.0881C282.161 39.6356 281.894 40.2689 281.782 40.9376C281.752 41.0109 281.707 41.0771 281.65 41.1316C281.593 41.186 281.525 41.2275 281.45 41.2531V41.2531Z" fill="#484D58"/>
<path d="M300.821 21.9316L301.284 26.923C302.191 27.1379 302.983 27.6861 303.504 28.4585C304.026 29.231 304.237 30.1712 304.097 31.0923C303.416 35.5235 307.114 41.3625 310.801 43.2109C310.801 43.2109 310.513 41.4176 312.1 41.5131C313.687 41.6086 316.345 49.8166 316.345 49.8166C316.345 49.8166 320.015 48.1196 320.402 37.8912C320.758 28.4309 316.267 23.8032 313.674 20.7402L300.821 21.9316Z" fill="#484D58"/>
<path d="M292.117 54.41C292.881 55.5681 293.56 56.7802 294.149 58.0368C294.384 57.9733 294.622 57.9096 294.853 57.8339C298.036 56.8885 299.203 55.4047 299.53 54.0408C299.675 53.3713 299.658 52.6768 299.48 52.0154C299.391 51.6368 299.25 51.2724 299.061 50.9329C297.353 52.3861 295.354 53.4561 293.198 54.0704C292.54 54.2988 292.117 54.41 292.117 54.41Z" fill="#484D58"/>
<path d="M293.198 54.0718L293.825 55.1296C296.82 54.2363 298.81 53.205 299.48 52.0196C299.392 51.641 299.251 51.2767 299.061 50.9371C297.353 52.3894 295.354 53.4584 293.198 54.0718V54.0718Z" fill="white"/>
<path d="M294.853 57.8339C298.036 56.8885 299.202 55.4048 299.53 54.0408C298.325 54.4212 297.197 55.0123 296.199 55.7866C295.547 56.3117 295.077 57.0277 294.853 57.8339V57.8339Z" fill="#ED827E"/>
<path d="M301.284 26.923C297.495 26.5123 288.534 28.1192 282.47 32.2275C282.47 32.2275 279.485 32.3269 277.2 26.0096C274.914 19.6923 278.886 15.7581 280.304 16.4215C281.723 17.0849 278.91 18.6076 279 20.4429C279 20.4429 286.302 16.2931 286.81 11.8896C287.317 7.48617 290.206 5.80436 291.703 7.30775C293.2 8.81113 288.809 13.8456 288.809 13.8456C288.809 13.8456 294.388 13.3878 296.825 8.81381C299.263 4.23987 303.914 1.64736 305.358 3.1982C306.801 4.74905 300.741 6.89073 299.293 9.23191C299.293 9.23191 308.326 4.53191 312.713 6.78395C317.099 9.03599 316.408 10.3414 313.479 10.032C311.292 10.0322 309.155 10.6851 307.341 11.907C307.341 11.907 314.578 11.0576 317.644 13.7629C320.709 16.4681 323.647 14.3911 324.582 15.9345C325.518 17.4778 319.802 18.6825 319.802 18.6825C319.802 18.6825 323.346 20.9896 326.704 19.484C330.062 17.9784 331.864 23.1911 323.434 22.5731C323.434 22.5731 324.302 28.0754 327.392 28.4716C330.483 28.8679 329.508 31.3863 327.318 31.1884C325.129 30.9906 322.809 28.4174 322.809 28.4174C322.809 28.4174 327.181 34.2172 325.88 36.596C324.579 38.9748 322.695 33.9928 322.695 33.9928C322.695 33.9928 325.388 41.7847 324.234 42.3425C323.081 42.9004 321.275 40.0762 321.275 40.0762C321.275 40.0762 323.647 45.4701 321.46 46.7074C319.723 47.5171 317.837 47.9614 315.921 48.0128C315.921 48.0128 307.984 27.6495 301.284 26.923Z" fill="#484D58"/>
<path d="M319.621 41.0603C319.072 43.8513 317.438 46.3107 315.078 47.8994C311.938 49.9792 309.213 47.4472 309.108 43.8769C309.045 40.7035 310.559 35.7017 314.193 35.0862C317.827 34.4707 320.252 37.6245 319.621 41.0603Z" fill="#FFDCD0"/>
<path d="M352.583 33.4603C352.583 33.4603 353.327 51.46 375.759 54.0765L401.953 36.5597L392.777 16.7431L352.583 33.4603Z" fill="#F1F1F1"/>
<path opacity="0.5" d="M352.583 33.4603C352.583 33.4603 353.327 51.46 375.759 54.0765L401.953 36.5597L392.777 16.7431L352.583 33.4603Z" fill="url(#paint6_linear)"/>
<path d="M137.155 159.31C151.6 159.31 163.31 147.6 163.31 133.155C163.31 118.71 151.6 107 137.155 107C122.71 107 111 118.71 111 133.155C111 147.6 122.71 159.31 137.155 159.31Z" fill="url(#paint7_linear)"/>
<path d="M79 329.966C79.0076 290.792 93.9517 253.093 120.788 224.548C147.625 196.004 184.336 178.76 223.445 176.329C262.554 173.898 301.119 186.462 331.286 211.463C361.453 236.464 380.953 272.022 385.814 310.894C389.611 341.309 384.239 372.164 370.388 399.508C354.762 430.412 329.171 455.145 297.75 469.713C266.328 484.28 230.911 487.831 197.222 479.791C163.533 471.751 133.539 452.589 112.087 425.403C90.6353 398.217 78.9784 364.594 79 329.966V329.966Z" fill="url(#paint8_linear)"/>
<path d="M92.2121 392.462C166.645 430.654 192.167 414.637 271.693 386.299C317.144 370.087 350.32 384.329 370.387 399.509C357.225 425.495 336.962 447.216 311.948 462.151C286.934 477.086 258.197 484.622 229.072 483.884C199.946 483.146 171.627 474.165 147.402 457.982C123.178 441.8 104.04 419.081 92.2121 392.462V392.462Z" fill="url(#paint9_linear)"/>
<path d="M84.9168 287.44C94.7244 253.347 116.004 223.685 145.16 203.465C174.315 183.245 209.559 173.709 244.935 176.466C280.311 179.224 313.65 194.107 339.319 218.6C364.987 243.093 381.411 275.694 385.815 310.895C372.272 298.125 356.247 288.278 338.735 281.964C321.223 275.651 302.6 273.007 284.022 274.197C203.078 278.955 140.868 336.13 84.9168 287.44Z" fill="url(#paint10_linear)"/>
<circle cx="96" cy="197" r="4" fill="#9EA1EB"/>
<circle cx="6" cy="413" r="6" fill="#9EA1EB"/>
<defs>
<linearGradient id="paint0_linear" x1="283.322" y1="52.1237" x2="300.815" y2="67.6967" gradientUnits="userSpaceOnUse">
<stop stop-color="#5FA8ED"/>
<stop offset="1" stop-color="#7ED5B7"/>
</linearGradient>
<linearGradient id="paint1_linear" x1="359.397" y1="159.248" x2="458.707" y2="147.418" gradientUnits="userSpaceOnUse">
<stop offset="0.005" stop-color="#FEA7AF"/>
<stop offset="0.973" stop-color="#EA47AC"/>
</linearGradient>
<linearGradient id="paint2_linear" x1="360.342" y1="132.36" x2="523.229" y2="112.956" gradientUnits="userSpaceOnUse">
<stop offset="0.005" stop-color="#FEA7AF"/>
<stop offset="0.973" stop-color="#EA47AC"/>
</linearGradient>
<linearGradient id="paint3_linear" x1="295.636" y1="63.5324" x2="318.894" y2="96.4063" gradientUnits="userSpaceOnUse">
<stop stop-color="#5FA8ED"/>
<stop offset="1" stop-color="#7ED5B7"/>
</linearGradient>
<linearGradient id="paint4_linear" x1="351.205" y1="38.4762" x2="362.522" y2="78.5106" gradientUnits="userSpaceOnUse">
<stop stop-color="#5FA8ED"/>
<stop offset="1" stop-color="#7ED5B7"/>
</linearGradient>
<linearGradient id="paint5_linear" x1="299.345" y1="43.5991" x2="309.246" y2="71.1402" gradientUnits="userSpaceOnUse">
<stop stop-color="#5FA8ED"/>
<stop offset="1" stop-color="#7ED5B7"/>
</linearGradient>
<linearGradient id="paint6_linear" x1="365.453" y1="24.9655" x2="382.856" y2="57.068" gradientUnits="userSpaceOnUse">
<stop stop-color="#9FCBF4"/>
<stop offset="1" stop-color="#B1E5D6"/>
</linearGradient>
<linearGradient id="paint7_linear" x1="111" y1="133.155" x2="163.31" y2="133.155" gradientUnits="userSpaceOnUse">
<stop offset="0.005" stop-color="#FEA7AF"/>
<stop offset="0.973" stop-color="#EA47AC"/>
</linearGradient>
<linearGradient id="paint8_linear" x1="299.666" y1="440.669" x2="153.691" y2="176.019" gradientUnits="userSpaceOnUse">
<stop stop-color="#4A7AF9"/>
<stop offset="1" stop-color="#B4E1EF"/>
</linearGradient>
<linearGradient id="paint9_linear" x1="291.511" y1="469.187" x2="268.105" y2="356.579" gradientUnits="userSpaceOnUse">
<stop stop-color="#4A7AF9"/>
<stop offset="1" stop-color="#B4E1EF"/>
</linearGradient>
<linearGradient id="paint10_linear" x1="300.495" y1="291.916" x2="265.26" y2="149.44" gradientUnits="userSpaceOnUse">
<stop stop-color="#4A7AF9"/>
<stop offset="1" stop-color="#B4E1EF"/>
</linearGradient>
</defs>
</svg>
